<svg width="100" height="100" viewBox="0 0 264 264" fill="none" xmlns="http://www.w3.org/2000/svg">
<g clip-path="url(#clip0_2882_173)">
<path d="M227.332 58.6667H161.332V242H241.999V73.3334C241.999 69.4435 240.453 65.713 237.703 62.9625C234.952 60.2119 231.222 58.6667 227.332 58.6667ZM190.665 183.333H175.999V168.667H190.665V183.333ZM190.665 146.667H175.999V132H190.665V146.667ZM190.665 110H175.999V95.3334H190.665V110ZM219.999 183.333H205.332V168.667H219.999V183.333ZM219.999 146.667H205.332V132H219.999V146.667ZM219.999 110H205.332V95.3334H219.999V110Z" fill="black"/>
<path d="M131.119 22H44.8787C40.7555 22 36.8011 23.6379 33.8855 26.5535C30.97 29.4691 29.332 33.4234 29.332 37.5467V242H65.9987V220H109.999V242H146.665V37.5467C146.665 33.4234 145.027 29.4691 142.112 26.5535C139.196 23.6379 135.242 22 131.119 22ZM65.9987 183.333H51.332V168.667H65.9987V183.333ZM65.9987 146.667H51.332V132H65.9987V146.667ZM65.9987 110H51.332V95.3333H65.9987V110ZM65.9987 73.3333H51.332V58.6667H65.9987V73.3333ZM95.332 183.333H80.6654V168.667H95.332V183.333ZM95.332 146.667H80.6654V132H95.332V146.667ZM95.332 110H80.6654V95.3333H95.332V110ZM95.332 73.3333H80.6654V58.6667H95.332V73.3333ZM124.665 183.333H109.999V168.667H124.665V183.333ZM124.665 146.667H109.999V132H124.665V146.667ZM124.665 110H109.999V95.3333H124.665V110ZM124.665 73.3333H109.999V58.6667H124.665V73.3333Z" fill="black"/>
</g>
<defs>
<clipPath id="clip0_2882_173">
<rect width="100" height="100" fill="white"/>
</clipPath>
</defs>
</svg>
