<svg width="10" height="6" viewBox="0 0 10 6" fill="none" xmlns="http://www.w3.org/2000/svg">
<path fill-rule="evenodd" clip-rule="evenodd" d="M4.45975 0.229065C4.6006 0.0823946 4.79161 -4.76837e-07 4.99077 -4.76837e-07C5.18993 -4.76837e-07 5.38094 0.0823946 5.52179 0.229065L9.7707 4.65489C9.84244 4.72706 9.89966 4.81339 9.93902 4.90884C9.97839 5.0043 9.99911 5.10696 9.99997 5.21084C10.0008 5.31472 9.98183 5.41774 9.94407 5.51389C9.9063 5.61004 9.85053 5.69739 9.78001 5.77085C9.70949 5.84431 9.62563 5.9024 9.53332 5.94174C9.44102 5.98108 9.34211 6.00087 9.24238 5.99997C9.14266 5.99907 9.0441 5.97749 8.95246 5.93648C8.86083 5.89548 8.77795 5.83588 8.70866 5.76115L4.99077 1.88846L1.27288 5.76115C1.13122 5.90367 0.941496 5.98253 0.744562 5.98074C0.547629 5.97896 0.359247 5.89668 0.219989 5.75162C0.0807304 5.60657 0.00173855 5.41034 2.76566e-05 5.20521C-0.00168324 5.00007 0.0740223 4.80245 0.210838 4.65489L4.45975 0.229065Z" fill="#9A55FF"/>
</svg>
