<?xml version="1.0" ?>

<!DOCTYPE svg  PUBLIC '-//W3C//DTD SVG 1.1//EN'  'http://www.w3.org/Graphics/SVG/1.1/DTD/svg11.dtd'>

<!-- Uploaded to: SVG Repo, www.svgrepo.com, Generator: SVG Repo Mixer Tools -->
<svg fill="#000000" width="30px" height="30px" viewBox="0 0 270.92 270.92" style="shape-rendering:geometricPrecision; text-rendering:geometricPrecision; image-rendering:optimizeQuality; fill-rule:evenodd; clip-rule:evenodd" version="1.1" xml:space="preserve" xmlns="http://www.w3.org/2000/svg" xmlns:xlink="http://www.w3.org/1999/xlink">

<defs>

<style type="text/css">
   <![CDATA[
    .fil0 {fill:black;fill-rule:nonzero}
   ]]>
  </style>

</defs>

<g id="Layer_x0020_1">

<path class="fil0" d="M219.5 66.52l-29.01 -29.14c-2.65,-2.66 -6.33,-4.2 -10.09,-4.2l-84.29 0c-11.36,0 -20.6,9.25 -20.6,20.61l0 40.18c0,1.95 1.58,3.53 3.53,3.53 1.95,0 3.53,-1.58 3.53,-3.53l0 -40.18c0,-7.47 6.07,-13.55 13.54,-13.55l84.29 0c1.91,0 3.76,0.77 5.09,2.11l29.01 29.14c1.35,1.36 2.1,3.16 2.1,5.07l0 140.59c0,7.48 -6.08,13.55 -13.54,13.55l-106.95 0c-7.47,0 -13.54,-6.07 -13.54,-13.55l0 -40.15c0,-1.95 -1.58,-3.53 -3.53,-3.53 -1.95,0 -3.53,1.58 -3.53,3.53l0 40.15c0,11.36 9.24,20.6 20.6,20.6l106.95 0c11.35,0 20.59,-9.24 20.59,-20.6l0 -140.59c0,-3.79 -1.47,-7.36 -4.15,-10.04zm-132.95 81.43c0.69,0.69 1.59,1.03 2.48,1.03 0.91,0 1.81,-0.34 2.5,-1.03 1.37,-1.38 1.37,-3.61 0,-4.98l-7.5 -7.5 7.5 -7.5c1.37,-1.38 1.37,-3.6 0,-4.99 -1.38,-1.37 -3.61,-1.37 -4.98,0l-7.51 7.5 -7.5 -7.5c-1.37,-1.37 -3.6,-1.37 -4.98,0 -1.37,1.39 -1.37,3.61 0,4.99l7.49 7.5 -7.49 7.5c-1.37,1.37 -1.37,3.6 0,4.98 0.69,0.69 1.6,1.03 2.48,1.03 0.91,0 1.81,-0.34 2.5,-1.03l7.5 -7.5 7.51 7.5zm-32.23 -12.48c0,-13.62 11.1,-24.72 24.72,-24.72 13.63,0 24.73,11.1 24.73,24.72 0,13.62 -11.1,24.72 -24.73,24.72 -13.62,0 -24.72,-11.1 -24.72,-24.72zm56.5 0c0,-17.52 -14.26,-31.77 -31.78,-31.77 -17.51,0 -31.77,14.25 -31.77,31.77 0,17.51 14.26,31.77 31.77,31.77 17.52,0 31.78,-14.26 31.78,-31.77zm70.04 -89.74c-1.94,0 -3.52,1.57 -3.52,3.52l0 26.84c0,1.95 1.58,3.53 3.52,3.53l25.69 0c1.95,0 3.53,-1.58 3.53,-3.53 0,-1.95 -1.58,-3.53 -3.53,-3.53l-22.16 0 0 -23.31c0,-1.95 -1.58,-3.52 -3.53,-3.52z"/>

</g>

</svg>