<svg width="20" height="18"  viewBox="0 0 119 107" fill="none" xmlns="http://www.w3.org/2000/svg">
<path d="M17 14.9758H102C102.993 14.9753 103.985 15.0388 104.97 15.1657C104.636 12.8057 103.831 10.5381 102.603 8.49982C101.376 6.46152 99.7512 4.69469 97.8273 3.30584C95.9034 1.917 93.7202 0.934902 91.4093 0.418774C89.0984 -0.097354 86.7076 -0.136825 84.3811 0.30274L14.4766 12.3221H14.3969C10.0089 13.1671 6.10689 15.6674 3.48766 19.3122C7.43377 16.4854 12.1575 14.9695 17 14.9758ZM102 21.3961H17C12.4928 21.401 8.17167 23.2064 4.98462 26.4161C1.79757 29.6258 0.00492165 33.9777 0 38.5169V89.8792C0.00492165 94.4184 1.79757 98.7703 4.98462 101.98C8.17167 105.19 12.4928 106.995 17 107H102C106.507 106.995 110.828 105.19 114.015 101.98C117.202 98.7703 118.995 94.4184 119 89.8792V38.5169C118.995 33.9777 117.202 29.6258 114.015 26.4161C110.828 23.2064 106.507 21.401 102 21.3961ZM89.3828 72.7584C87.7017 72.7584 86.0583 72.2564 84.6605 71.3157C83.2626 70.3751 82.1732 69.0382 81.5298 67.474C80.8865 65.9098 80.7182 64.1885 81.0461 62.528C81.3741 60.8674 82.1837 59.3421 83.3724 58.1449C84.5611 56.9477 86.0757 56.1324 87.7245 55.8021C89.3734 55.4718 91.0825 55.6413 92.6356 56.2893C94.1888 56.9372 95.5163 58.0344 96.4503 59.4421C97.3843 60.8499 97.8828 62.505 97.8828 64.198C97.8828 66.4684 96.9873 68.6458 95.3932 70.2511C93.7992 71.8565 91.6372 72.7584 89.3828 72.7584Z" fill="#676767"/>
<path d="M0.132812 56.574V29.9565C0.132812 24.1595 3.32031 14.4408 14.3836 12.3355C23.7734 10.5619 33.0703 10.5619 33.0703 10.5619C33.0703 10.5619 39.1797 14.8421 34.1328 14.8421C29.0859 14.8421 29.2188 21.3961 34.1328 21.3961C39.0469 21.3961 34.1328 27.6827 34.1328 27.6827L14.3438 50.2875L0.132812 56.574Z" fill="#676767"/>
</svg>
