<!DOCTYPE svg PUBLIC "-//W3C//DTD SVG 1.1//EN" "http://www.w3.org/Graphics/SVG/1.1/DTD/svg11.dtd">

<!-- Uploaded to: SVG Repo, www.svgrepo.com, Transformed by: SVG Repo Mixer Tools -->
<svg width="24px" height="24px" viewBox="0 -3 16 16" id="meteor-icon-kit__regular-chart-line-down-s" fill="none" xmlns="http://www.w3.org/2000/svg" stroke="#ffffff" transform="rotate(0)">

<g id="SVGRepo_bgCarrier" stroke-width="0"/>

<g id="SVGRepo_tracerCarrier" stroke-linecap="round" stroke-linejoin="round" stroke="#CCCCCC" stroke-width="0.256"/>

<g id="SVGRepo_iconCarrier">

<path fill-rule="evenodd" clip-rule="evenodd" d="M12.5858 8L9 4.4142L6.7071 6.7071C6.3166 7.0976 5.68342 7.0976 5.29289 6.7071L0.29289 1.70711C-0.09763 1.31658 -0.09763 0.68342 0.29289 0.29289C0.68342 -0.09763 1.31658 -0.09763 1.70711 0.29289L6 4.5858L8.2929 2.29289C8.6834 1.90237 9.3166 1.90237 9.7071 2.29289L14 6.5858V4C14 3.4477 14.4477 3 15 3C15.5523 3 16 3.4477 16 4V9C16 9.5523 15.5523 10 15 10H10C9.4477 10 9 9.5523 9 9C9 8.4477 9.4477 8 10 8H12.5858z" fill="#db2e0f"/>

</g>

</svg>