<svg width="563" height="563" viewBox="0 0 563 563" fill="none" xmlns="http://www.w3.org/2000/svg">
<circle cx="274.5" cy="274.5" r="274.5" fill="#F0ECFB"/>
<g clip-path="url(#clip0_248_62)">
<path d="M158.286 563C81.3606 563 19.0003 557.384 19.0003 550.457C19.0003 543.53 81.3606 537.914 158.286 537.914C235.211 537.914 297.571 543.53 297.571 550.457C297.571 557.384 235.211 563 158.286 563Z" fill="white"/>
<path opacity="0.1" d="M158.286 563C81.3606 563 19.0003 557.384 19.0003 550.457C19.0003 543.53 81.3606 537.914 158.286 537.914C235.211 537.914 297.571 543.53 297.571 550.457C297.571 557.384 235.211 563 158.286 563Z" fill="#292A2E"/>
<path d="M389.506 363.936H433.903V376.543H389.506V363.936Z" fill="#F4F4F4"/>
<path opacity="0.05" d="M422.124 363.936H427.941V376.543H422.124V363.936Z" fill="#292A2E"/>
<path d="M395.179 366.676H419.368V374.147H395.179V366.676Z" fill="white"/>
<path d="M354.092 365.58L395.345 347.997L400.515 359.55L359.262 377.134L354.092 365.58Z" fill="#F4F4F4"/>
<path opacity="0.05" d="M354.092 365.58L395.345 347.997L400.515 359.55L359.262 377.134L354.092 365.58Z" fill="#292A2E"/>
<path d="M359.632 363.219L365.037 360.915L370.208 372.468L364.802 374.772L359.632 363.219Z" fill="white"/>
<path d="M368.723 362.335L391.198 352.755L394.262 359.601L371.787 369.181L368.723 362.335Z" fill="white"/>
<path opacity="0.05" d="M354.015 523.641H365.172V530.913H354.015V523.641Z" fill="#292A2E"/>
<path opacity="0.05" d="M468.086 523.641H479.243V530.913H468.086V523.641Z" fill="#292A2E"/>
<path d="M343.787 377.134H489.47V523.395H343.787V377.134Z" fill="#F4F4F4"/>
<path opacity="0.03" d="M343.787 377.134H489.47V523.395H343.787V377.134Z" fill="#292A2E"/>
<path d="M316.79 377.134H462.473V523.395H316.79V377.134Z" fill="#F4F4F4"/>
<path opacity="0.05" d="M327.018 523.641H338.175V530.913H327.018V523.641Z" fill="#292A2E"/>
<path opacity="0.05" d="M441.088 523.641H452.245V530.913H441.088V523.641Z" fill="#292A2E"/>
<path opacity="0.7" d="M322.258 383.984H457.004V412.084H322.258V383.984Z" fill="white"/>
<path opacity="0.7" d="M322.258 418.962H457.004V447.061H322.258V418.962Z" fill="white"/>
<path opacity="0.7" d="M322.258 453.939H457.004V482.039H322.258V453.939Z" fill="white"/>
<path opacity="0.05" d="M389.63 401.966C387.405 401.966 385.602 400.206 385.602 398.034C385.602 395.863 387.405 394.103 389.63 394.103C391.855 394.103 393.659 395.863 393.659 398.034C393.659 400.206 391.855 401.966 389.63 401.966Z" fill="#292A2E"/>
<path opacity="0.05" d="M389.63 436.943C387.405 436.943 385.602 435.183 385.602 433.012C385.602 430.84 387.405 429.08 389.63 429.08C391.855 429.08 393.659 430.84 393.659 433.012C393.659 435.183 391.855 436.943 389.63 436.943Z" fill="#292A2E"/>
<path opacity="0.05" d="M389.63 471.921C387.405 471.921 385.602 470.161 385.602 467.989C385.602 465.818 387.405 464.058 389.63 464.058C391.855 464.058 393.659 465.818 393.659 467.989C393.659 470.161 391.855 471.921 389.63 471.921Z" fill="#292A2E"/>
<path opacity="0.7" d="M322.258 489.705H457.004V517.805H322.258V489.705Z" fill="white"/>
<path opacity="0.05" d="M389.631 507.687C387.406 507.687 385.603 505.926 385.603 503.755C385.603 501.583 387.406 499.823 389.631 499.823C391.856 499.823 393.66 501.583 393.66 503.755C393.66 505.926 391.856 507.687 389.631 507.687Z" fill="#292A2E"/>
<path d="M437.755 231.963H351.612V122.539L437.755 122.539V231.963Z" fill="#F4F4F4"/>
<path d="M437.754 122.539H440.549V231.963H437.754V122.539Z" fill="#F4F4F4"/>
<path opacity="0.05" d="M437.754 122.539H440.549V231.963H437.754V122.539Z" fill="#292A2E"/>
<path opacity="0.05" d="M422.062 212.03H367.304V142.471H422.062V212.03Z" fill="#292A2E"/>
<path opacity="0.03" d="M422.063 212.03H419.209V142.471H422.063V212.03Z" fill="#292A2E"/>
<path d="M508.206 328.258H437.755V258.872H508.206V328.258Z" fill="#F4F4F4"/>
<path opacity="0.05" d="M495.372 315.618H450.589V271.512H495.372V315.618Z" fill="#292A2E"/>
<path d="M508.205 258.873H511V328.258H508.205V258.873Z" fill="#F4F4F4"/>
<path opacity="0.05" d="M508.205 258.873H511V328.258H508.205V258.873Z" fill="#292A2E"/>
<path opacity="0.03" d="M495.372 315.618H492.519V271.512H495.372V315.618Z" fill="#292A2E"/>
<path d="M78.6063 122.278H258.373V297.715H78.6063V122.278Z" fill="#F4F4F4"/>
<path d="M258.373 122.278H260.434V297.715H258.373V122.278Z" fill="#F4F4F4"/>
<path opacity="0.05" d="M258.373 122.278H260.434V297.715H258.373V122.278Z" fill="#292A2E"/>
<path opacity="0.05" d="M214.824 243.168V197.268H176.297V223.935H116.619V271.152H91.2546V297.715H116.619H121.505H249.726V243.168H214.824Z" fill="#292A2E"/>
<path opacity="0.34" d="M181.242 202.252H209.298V207.235H181.242V202.252Z" fill="#FFFFFA"/>
<path opacity="0.34" d="M181.242 212.579H209.298V217.563H181.242V212.579Z" fill="#FFFFFA"/>
<path opacity="0.34" d="M181.242 222.907H209.298V227.89H181.242V222.907Z" fill="#FFFFFA"/>
<path opacity="0.34" d="M239.58 248.006H244.751V252.989H239.58V248.006Z" fill="#FFFFFA"/>
<path opacity="0.34" d="M239.58 258.333H244.751V263.317H239.58V258.333Z" fill="#FFFFFA"/>
<path opacity="0.34" d="M239.58 268.66H244.751V273.644H239.58V268.66Z" fill="#FFFFFA"/>
<path opacity="0.34" d="M230.013 248.006H235.185V252.989H230.013V248.006Z" fill="#FFFFFA"/>
<path opacity="0.34" d="M230.013 258.333H235.185V263.317H230.013V258.333Z" fill="#FFFFFA"/>
<path opacity="0.34" d="M230.013 268.66H235.185V273.644H230.013V268.66Z" fill="#FFFFFA"/>
<path opacity="0.34" d="M220.706 248.006H225.877V252.989H220.706V248.006Z" fill="#FFFFFA"/>
<path opacity="0.34" d="M220.706 258.333H225.877V263.317H220.706V258.333Z" fill="#FFFFFA"/>
<path opacity="0.34" d="M220.706 268.66H225.877V273.644H220.706V268.66Z" fill="#FFFFFA"/>
<path d="M258.373 209.012H222.201V122.278H219.21V209.012H121.505V122.278H118.514V209.012H78.6063V211.931H118.514V297.715H121.505V211.931H219.21V297.715H222.201V211.931H258.373V209.012Z" fill="white"/>
<path d="M71.4448 297.503H265.534V303.337H71.4448V297.503Z" fill="#F4F4F4"/>
<path opacity="0.1" d="M71.4448 297.503H265.534V303.337H71.4448V297.503Z" fill="#292A2E"/>
<path opacity="0.1" d="M265.535 297.503H268.337V303.337H265.535V297.503Z" fill="#292A2E"/>
<path opacity="0.1" d="M265.535 297.503H268.337V303.337H265.535V297.503Z" fill="#292A2E"/>
<path d="M109.433 327.558C136.954 327.558 159.265 334.885 159.265 343.924V363.408H59.6009V343.924C59.6009 334.885 81.9115 327.558 109.433 327.558Z" fill="#3F5FE6"/>
<path opacity="0.49" d="M109.433 327.558C136.954 327.558 159.265 334.885 159.265 343.924V363.408H59.6009V343.924C59.6009 334.885 81.9115 327.558 109.433 327.558Z" fill="white"/>
<path opacity="0.49" d="M73.1756 343.926V363.407H159.266V343.926C159.266 335.641 140.528 328.795 116.221 327.713C91.9106 328.795 73.1756 335.641 73.1756 343.926Z" fill="white"/>
<path d="M59.6008 552.725H57.9282L59.6008 361.679L61.2589 363.312L60.0767 496.762L119.114 497.741L120.305 363.298L121.964 363.312L120.772 497.769L156.411 498.36L157.607 363.298L159.266 361.693L157.593 552.725L155.949 552.712L156.397 499.979L120.758 499.388L120.305 552.725L118.647 552.712L119.1 499.36L60.0623 498.381L59.6008 552.725Z" fill="#292A2E"/>
<path d="M209.912 524.123C209.912 524.123 212.875 539.115 227.259 539.95C241.642 540.786 238.523 551.968 238.523 551.968H183.558V525.168L209.912 524.123Z" fill="#3F5FE6"/>
<path d="M178.552 479.031C178.552 479.031 174.43 493.76 186.958 500.706C199.486 507.651 191.629 516.342 191.629 516.342L142.31 492.662L154.431 468.615L178.552 479.031Z" fill="#3F5FE6"/>
<path d="M183.77 488.765L220.933 351.924C223.752 336.806 219.508 330.253 212.969 323.888C201.48 312.704 153.874 288.901 153.874 288.901L96.7613 288.749C81.6168 288.749 66.7303 303.323 66.7303 318.101C66.7303 332.88 82.1253 345.414 97.2692 345.414L167.598 352.264L148.534 477.561L183.77 488.765Z" fill="#262626"/>
<path d="M148.534 477.56L156.04 428.232L194.062 450.868L183.77 488.765L148.534 477.56Z" fill="#0C0C0C"/>
<path d="M139.916 316.593C139.916 316.593 163.925 321.814 187.703 345.02C202.119 359.089 200.937 384.55 198.774 433.519L175.158 399.477L149.255 353.885L139.916 316.593Z" fill="#0C0C0C"/>
<path d="M56.7873 288.734L95.5739 288.556L95.5883 289.054H107.333C107.333 289.054 136.753 315.472 160.437 332.12C177.666 344.228 188.176 355.773 189.085 368.355C191.302 399.026 216.306 529.835 216.306 529.835L178.675 535.396L145.652 379.069C145.652 379.069 94.0169 355.836 82.0732 347.753C70.8264 340.141 62.8822 337.198 59.1602 328.89C52.7326 314.541 56.7873 288.734 56.7873 288.734Z" fill="#262626"/>
<path d="M100.302 298.268L163.224 299.082L127.928 319.655L98.5581 304.854C97.8505 304.483 97.2909 303.891 96.9689 303.173C96.6468 302.455 96.581 301.652 96.782 300.893C96.9829 300.134 97.439 299.463 98.0772 298.987C98.7155 298.511 99.4989 298.258 100.302 298.268Z" fill="#292A2E"/>
<path opacity="0.2" d="M100.302 298.268L163.224 299.082L127.928 319.655L98.5581 304.854C97.8505 304.483 97.2909 303.891 96.9689 303.173C96.6468 302.455 96.581 301.652 96.782 300.893C96.9829 300.134 97.439 299.463 98.0772 298.987C98.7155 298.511 99.4989 298.258 100.302 298.268Z" fill="white"/>
<path d="M162.863 188.105L180.661 244.382L216.309 289.931L195.485 313.259L153.075 267.065C151.121 265.558 149.593 263.59 148.634 261.347L147.974 259.786L123.477 201.944L162.863 188.105Z" fill="#3F5FE6"/>
<path d="M135.446 128.369C135.446 128.369 142.618 123.082 144.394 110.924C145.771 101.51 136.872 107.609 136.872 107.609C136.872 107.609 137.795 100.821 132.727 101.494C127.658 102.168 124.823 109.299 124.823 109.299" fill="#0C0C0C"/>
<path d="M106.533 102.289C106.533 102.289 81.3878 104.92 90.4778 138.173L92.7025 138.319L97.2193 138.614" fill="#0C0C0C"/>
<path d="M131.234 172.901C131.124 172.887 129.897 192.751 106.251 191.021C89.8793 189.824 84.042 172.873 83.6673 172.873C85.4321 172.507 87.6137 171.951 88.4804 171.761C90.3699 171.333 92.0811 170.354 93.3863 168.953C94.6916 167.553 95.5291 165.798 95.7873 163.922C96.266 161.106 95.4557 146.7 95.7039 143.851L120.832 149.325C120.48 155.342 118.023 169.292 126.635 171.761C128.07 172.168 129.614 172.546 131.234 172.901Z" fill="#E98862"/>
<path opacity="0.52" d="M121.184 166.06C120.79 164.822 120.536 163.545 120.427 162.253C120.152 159.305 120.207 156.336 120.593 153.4C115.485 152.728 110.673 150.671 106.703 147.464C106.236 149.145 103.67 156.494 104.381 158.09C105.723 161.111 112.035 166.06 121.184 166.06Z" fill="#0C0C0C"/>
<path d="M115.997 162.128C106.083 161.26 94.217 155.147 94.0456 142.013L93.8914 130.162C93.7201 117.029 100.65 106.294 113.321 106.136C125.992 105.979 135.602 116.509 135.774 129.643L135.842 134.889C135.833 136.691 135.699 138.49 135.439 140.274C134.789 144.994 133.781 152.169 130.499 157.024C127.4 161.606 122.332 162.682 115.997 162.128Z" fill="#E98862"/>
<path opacity="0.52" d="M120.597 150.123C122.643 150.213 124.682 149.833 126.55 149.013C126.626 148.98 126.686 148.918 126.716 148.842C126.747 148.766 126.745 148.681 126.713 148.606C126.68 148.531 126.618 148.472 126.541 148.44C126.464 148.409 126.377 148.408 126.299 148.439C122.275 150.114 118.621 149.869 115.732 147.73C115.674 147.685 115.614 147.643 115.551 147.604C115.478 147.571 115.395 147.566 115.319 147.589C115.242 147.613 115.177 147.663 115.137 147.731C115.097 147.799 115.085 147.879 115.102 147.956C115.12 148.032 115.167 148.099 115.233 148.144C115.256 148.158 115.293 148.186 115.343 148.225C116.862 149.354 118.691 150.015 120.597 150.123Z" fill="#0C0C0C"/>
<path opacity="0.52" d="M120.504 153.082C120.873 153.104 121.244 153.095 121.613 153.056C121.654 153.051 121.695 153.039 121.732 153.019C121.768 153 121.801 152.973 121.827 152.942C121.854 152.91 121.873 152.873 121.885 152.834C121.897 152.794 121.901 152.753 121.897 152.713C121.892 152.672 121.88 152.632 121.86 152.596C121.839 152.56 121.812 152.529 121.78 152.503C121.747 152.477 121.71 152.458 121.669 152.446C121.629 152.435 121.587 152.431 121.545 152.435C119.331 152.665 118.274 151.675 118.229 151.632C118.169 151.574 118.088 151.541 118.003 151.54C117.918 151.54 117.837 151.573 117.777 151.632C117.717 151.69 117.683 151.769 117.683 151.852C117.683 151.935 117.716 152.014 117.776 152.073C118.539 152.707 119.502 153.063 120.504 153.082Z" fill="#0C0C0C"/>
<path d="M131.589 137.414C130.726 137.414 130.028 136.732 130.028 135.891C130.028 135.05 130.726 134.368 131.589 134.368C132.451 134.368 133.149 135.05 133.149 135.891C133.149 136.732 132.451 137.414 131.589 137.414Z" fill="#0C0C0C"/>
<path d="M116.34 136.481C115.478 136.481 114.78 135.799 114.78 134.957C114.78 134.116 115.478 133.434 116.34 133.434C117.203 133.434 117.901 134.116 117.901 134.957C117.901 135.799 117.203 136.481 116.34 136.481Z" fill="#0C0C0C"/>
<path d="M94.8846 146.007C91.0338 146.055 87.8601 142.073 87.8098 138.315C87.7595 134.557 90.8559 132.446 94.7067 132.399L96.7235 134.892L98.1943 145.966L94.8846 146.007Z" fill="#E98862"/>
<path d="M98.7159 139.966C98.7159 139.966 100.016 121.382 105.791 120.234C109.637 119.469 118.963 124.793 127.601 123.185C131.38 122.484 134.968 123.395 135.333 125.137C135.477 125.827 137.831 115.913 131.913 108.392C127.201 102.404 111.782 100.711 104.767 102.674C85.3423 108.112 93.9139 133.214 93.9139 133.214L94.78 139.621L98.7159 139.966Z" fill="#0C0C0C"/>
<g opacity="0.52">
<path d="M122.925 145.738C122.933 145.738 122.942 145.738 122.95 145.738C124.191 145.726 126.271 145.57 126.263 144.664C126.254 143.913 124.065 135.831 123.815 134.912C123.794 134.833 123.741 134.766 123.668 134.724C123.596 134.683 123.51 134.672 123.429 134.693C123.348 134.714 123.278 134.765 123.236 134.836C123.194 134.907 123.182 134.991 123.204 135.07C124.177 138.65 125.625 144.16 125.63 144.672C125.51 144.887 124.229 145.11 122.944 145.123C122.863 145.124 122.786 145.156 122.728 145.212C122.671 145.268 122.637 145.343 122.635 145.422C122.632 145.501 122.661 145.578 122.715 145.637C122.769 145.696 122.845 145.732 122.925 145.739V145.738Z" fill="#0C0C0C"/>
</g>
<path d="M127.159 127.632C128.463 127.281 129.84 127.281 131.144 127.632C131.785 127.8 132.396 128.061 132.957 128.406C133.512 128.745 134.021 129.15 134.471 129.612C134.554 129.695 134.602 129.805 134.603 129.921C134.605 130.037 134.561 130.148 134.481 130.233C134.4 130.318 134.289 130.369 134.171 130.376C134.053 130.383 133.936 130.345 133.846 130.271L133.817 130.247C133.4 129.87 132.936 129.545 132.436 129.282C131.945 129.019 131.416 128.831 130.868 128.723C129.788 128.502 128.667 128.563 127.619 128.9L127.576 128.916C127.404 128.97 127.218 128.956 127.056 128.878C126.895 128.8 126.771 128.664 126.711 128.498C126.651 128.332 126.659 128.15 126.735 127.99C126.81 127.83 126.946 127.706 127.115 127.643L127.159 127.632Z" fill="#0C0C0C"/>
<path d="M117.924 128.396C116.932 127.926 115.829 127.719 114.729 127.798C114.171 127.833 113.621 127.951 113.099 128.147C112.568 128.344 112.064 128.605 111.599 128.924L111.57 128.944C111.47 129.006 111.349 129.029 111.233 129.007C111.116 128.985 111.013 128.92 110.944 128.825C110.876 128.731 110.847 128.614 110.865 128.5C110.882 128.385 110.945 128.281 111.038 128.211C111.548 127.811 112.108 127.475 112.704 127.212C113.307 126.943 113.948 126.764 114.606 126.68C115.946 126.502 117.311 126.68 118.556 127.196C118.639 127.232 118.715 127.283 118.778 127.347C118.841 127.411 118.891 127.486 118.924 127.569C118.958 127.652 118.974 127.74 118.973 127.829C118.971 127.917 118.951 128.005 118.915 128.087C118.842 128.251 118.705 128.38 118.534 128.446C118.449 128.479 118.358 128.495 118.267 128.493C118.176 128.492 118.087 128.473 118.003 128.437L117.965 128.419L117.924 128.396Z" fill="#0C0C0C"/>
<path d="M118.557 108.476C117.68 104.382 119.28 100.592 122.131 100.011C124.981 99.4297 128.002 102.278 128.879 106.372C129.755 110.466 128.155 114.256 125.305 114.837C122.455 115.418 119.433 112.571 118.557 108.476Z" fill="#0C0C0C"/>
<path d="M160.617 216.562C159.872 225.102 154.592 278.383 153.874 288.903H56.8306C56.2729 279.415 53.7696 237.929 51.6549 219.373C49.6364 201.669 46.8076 193.612 49.1323 188.111C53.2324 178.407 66.2832 174.074 75.1206 172.906C80.5174 172.193 88.6341 171.682 88.6341 171.682C88.6341 171.682 89.3211 185.25 105.708 186.005C128.016 187.03 126.526 171.682 126.636 171.682C130.251 171.682 149.921 174.247 154.841 177.375C161.788 181.794 163.841 187.817 163.922 193.349C164.015 199.721 161.46 206.874 160.617 216.562Z" fill="#3F5FE6"/>
<path d="M155.696 267.906C155.766 267.906 155.832 267.881 155.884 267.835C155.935 267.79 155.967 267.727 155.973 267.66L159.649 226.622C159.656 226.55 159.633 226.48 159.586 226.425C159.539 226.37 159.471 226.336 159.398 226.329C159.362 226.326 159.325 226.329 159.291 226.34C159.256 226.35 159.223 226.367 159.195 226.39C159.167 226.413 159.145 226.441 159.128 226.473C159.111 226.504 159.101 226.539 159.099 226.575L155.422 267.613C155.416 267.684 155.439 267.755 155.486 267.809C155.533 267.864 155.6 267.898 155.673 267.905C155.681 267.905 155.689 267.906 155.696 267.906Z" fill="#0C0C0C"/>
<path d="M148.66 291.743L135.335 281.193L137.577 281.812C138.305 281.997 139.078 281.906 139.74 281.557C140.401 281.207 140.903 280.626 141.142 279.93C141.253 279.567 141.286 279.185 141.241 278.808C141.196 278.432 141.072 278.068 140.878 277.74C140.684 277.411 140.423 277.125 140.112 276.898C139.801 276.671 139.445 276.509 139.068 276.42L111.075 269.776L108.666 278.477C107.917 281.18 108.013 284.039 108.941 286.688C109.868 289.337 111.585 291.656 113.871 293.346L124.244 300.985C124.775 301.392 125.433 301.607 126.108 301.594C126.783 301.582 127.432 301.342 127.947 300.916C128.404 300.521 128.719 299.994 128.847 299.412C128.975 298.83 128.909 298.223 128.658 297.68C128.703 297.667 128.744 297.642 128.775 297.609C128.803 297.576 128.823 297.537 128.831 297.495C128.84 297.454 128.838 297.41 128.826 297.37L130.736 298.782C131.327 299.237 132.072 299.456 132.822 299.395C133.572 299.335 134.27 298.998 134.775 298.454C135.209 297.953 135.448 297.318 135.45 296.662C135.452 296.005 135.217 295.369 134.786 294.865C134.816 294.861 134.845 294.851 134.871 294.837L135.656 295.417C136.187 295.824 136.846 296.039 137.52 296.026C138.195 296.014 138.845 295.774 139.359 295.348C139.914 294.869 140.256 294.199 140.315 293.48C140.374 292.76 140.145 292.045 139.677 291.486C139.688 291.471 139.697 291.454 139.704 291.436L145.254 295.83C145.529 296.047 145.845 296.21 146.185 296.309C146.524 296.407 146.88 296.439 147.233 296.404C147.585 296.368 147.927 296.264 148.238 296.1C148.549 295.935 148.825 295.712 149.048 295.444C149.271 295.175 149.438 294.866 149.539 294.535C149.64 294.204 149.673 293.856 149.636 293.512C149.599 293.169 149.493 292.835 149.325 292.531C149.156 292.227 148.927 291.959 148.652 291.741L148.66 291.743Z" fill="#E98862"/>
<path opacity="0.2" d="M139.373 291.593C139.344 291.583 139.316 291.568 139.292 291.548L133.953 287.22C133.926 287.198 133.904 287.171 133.887 287.14C133.871 287.11 133.861 287.076 133.858 287.042C133.854 287.008 133.858 286.973 133.869 286.94C133.879 286.907 133.896 286.877 133.919 286.85C133.941 286.824 133.969 286.802 134 286.786C134.031 286.77 134.065 286.76 134.101 286.757C134.136 286.754 134.171 286.758 134.205 286.768C134.239 286.778 134.27 286.795 134.297 286.817L139.636 291.145C139.684 291.184 139.717 291.239 139.728 291.3C139.739 291.36 139.728 291.423 139.697 291.476C139.666 291.53 139.616 291.571 139.557 291.592C139.498 291.614 139.433 291.614 139.373 291.593Z" fill="#0A0A0A"/>
<path opacity="0.2" d="M134.667 294.862C134.639 294.852 134.612 294.838 134.588 294.819L130.365 291.449C130.31 291.405 130.275 291.341 130.268 291.272C130.261 291.203 130.282 291.133 130.327 291.08C130.372 291.026 130.437 290.992 130.508 290.985C130.579 290.978 130.65 290.998 130.705 291.042L134.928 294.413C134.977 294.452 135.011 294.507 135.023 294.567C135.034 294.628 135.024 294.691 134.992 294.745C134.961 294.799 134.911 294.84 134.852 294.862C134.792 294.883 134.727 294.884 134.667 294.862Z" fill="#0A0A0A"/>
<path opacity="0.2" d="M128.486 297.688C128.455 297.677 128.427 297.661 128.402 297.64L126.446 296.003C126.419 295.981 126.397 295.954 126.381 295.923C126.365 295.892 126.355 295.859 126.353 295.825C126.35 295.79 126.354 295.756 126.365 295.723C126.376 295.69 126.394 295.66 126.417 295.634C126.44 295.608 126.468 295.587 126.499 295.571C126.53 295.555 126.565 295.546 126.6 295.543C126.635 295.541 126.67 295.545 126.704 295.556C126.737 295.566 126.768 295.583 126.795 295.606L128.752 297.243C128.799 297.283 128.831 297.338 128.841 297.398C128.851 297.458 128.84 297.52 128.808 297.573C128.777 297.626 128.727 297.666 128.669 297.687C128.61 297.709 128.545 297.709 128.486 297.688Z" fill="#0A0A0A"/>
<path d="M30.8897 265.902L30.992 265.459L48.705 189.002L83.7474 196.733L69.9223 256.412L125.304 269.693L118.488 300.19L44.6856 286.453C44.5198 286.421 44.2738 286.372 44.1058 286.335C41.8632 285.84 39.7424 284.919 37.8646 283.625C35.9867 282.33 34.3885 280.687 33.1613 278.79C31.9341 276.892 31.1018 274.778 30.712 272.566C30.3223 270.355 30.3826 268.09 30.8897 265.902Z" fill="#3F5FE6"/>
<path d="M125.575 269.751C125.59 269.683 125.577 269.611 125.539 269.552C125.5 269.493 125.44 269.45 125.371 269.434L70.2357 256.218L79.2003 217.577C79.2104 217.542 79.2131 217.505 79.2081 217.469C79.2032 217.433 79.1908 217.398 79.1716 217.367C79.1524 217.335 79.1269 217.308 79.0966 217.286C79.0663 217.265 79.0318 217.25 78.9953 217.242C78.9588 217.234 78.921 217.233 78.8842 217.239C78.8473 217.246 78.8122 217.26 78.7811 217.28C78.7499 217.3 78.7232 217.327 78.7028 217.357C78.6823 217.388 78.6684 217.422 78.6619 217.458L69.6371 256.357C69.6205 256.427 69.6325 256.5 69.6706 256.56C69.7087 256.621 69.7698 256.664 69.8406 256.681L124.979 269.897C124.979 269.897 124.61 271.469 124.506 272C124.497 272.069 124.518 272.139 124.562 272.193C124.606 272.248 124.671 272.283 124.742 272.291C124.812 272.299 124.884 272.279 124.94 272.236C124.995 272.193 125.031 272.13 125.04 272.061C125.167 271.479 125.575 269.751 125.575 269.751Z" fill="#0C0C0C"/>
<path d="M123.414 312.337L144.707 248.459C145.081 247.336 145.81 246.358 146.789 245.664C147.767 244.971 148.946 244.597 150.155 244.597H236.906C237.811 244.597 238.702 244.806 239.508 245.207C240.314 245.608 241.011 246.189 241.542 246.903C242.074 247.617 242.424 248.444 242.565 249.315C242.707 250.187 242.634 251.079 242.355 251.918L221.061 315.796C220.686 316.919 219.958 317.897 218.979 318.591C218 319.284 216.822 319.658 215.612 319.658H128.862C127.958 319.658 127.066 319.449 126.26 319.048C125.455 318.647 124.758 318.066 124.226 317.352C123.695 316.638 123.344 315.812 123.203 314.94C123.062 314.068 123.134 313.176 123.414 312.337Z" fill="#292A2E"/>
<path opacity="0.2" d="M123.414 312.337L144.707 248.459C145.081 247.336 145.81 246.358 146.789 245.664C147.767 244.971 148.946 244.597 150.155 244.597H236.906C237.811 244.597 238.702 244.806 239.508 245.207C240.314 245.608 241.011 246.189 241.542 246.903C242.074 247.617 242.424 248.444 242.565 249.315C242.707 250.187 242.634 251.079 242.355 251.918L221.061 315.796C220.686 316.919 219.958 317.897 218.979 318.591C218 319.284 216.822 319.658 215.612 319.658H128.862C127.958 319.658 127.066 319.449 126.26 319.048C125.455 318.647 124.758 318.066 124.226 317.352C123.695 316.638 123.344 315.812 123.203 314.94C123.062 314.068 123.134 313.176 123.414 312.337Z" fill="white"/>
<path d="M185.383 291.007C180.358 291.007 176.285 287.031 176.285 282.128C176.285 277.224 180.358 273.248 185.383 273.248C190.408 273.248 194.481 277.224 194.481 282.128C194.481 287.031 190.408 291.007 185.383 291.007Z" fill="white"/>
<path d="M271.033 104.75H443.212C451.189 104.75 457.655 111.061 457.655 118.845V322.833C457.655 330.617 451.189 336.928 443.212 336.928H271.033C263.056 336.928 256.59 330.617 256.59 322.833V118.845C256.59 111.061 263.056 104.75 271.033 104.75Z" fill="#292A2E"/>
<path d="M264.669 98.5394H436.849C444.826 98.5394 451.292 104.85 451.292 112.635V316.622C451.292 324.407 444.826 330.717 436.849 330.717H264.669C256.693 330.717 250.226 324.407 250.226 316.622V112.635C250.226 104.85 256.693 98.5394 264.669 98.5394Z" fill="white"/>
<path d="M264.669 331.257H436.849C440.825 331.253 444.637 329.709 447.448 326.965C450.259 324.222 451.84 320.502 451.845 316.622V112.635C451.84 108.755 450.259 105.035 447.448 102.291C444.636 99.5475 440.825 98.0043 436.849 98H264.669C260.694 98.0044 256.882 99.5477 254.071 102.291C251.26 105.035 249.678 108.755 249.674 112.635V316.622C249.678 320.502 251.259 324.222 254.071 326.965C256.882 329.709 260.694 331.252 264.669 331.257ZM436.849 99.0788C440.532 99.0828 444.062 100.512 446.666 103.054C449.27 105.595 450.735 109.041 450.739 112.635V316.622C450.735 320.216 449.27 323.661 446.666 326.203C444.062 328.744 440.532 330.173 436.849 330.177H264.669C260.987 330.173 257.456 328.744 254.852 326.203C252.248 323.661 250.783 320.216 250.78 316.622V112.635C250.783 109.041 252.248 105.595 254.852 103.054C257.456 100.512 260.987 99.0828 264.669 99.0788H436.849Z" fill="#292A2E"/>
<path d="M453.611 359.906C433.807 359.906 417.752 344.238 417.752 324.911C417.752 305.583 433.807 289.916 453.611 289.916C473.415 289.916 489.47 305.583 489.47 324.911C489.47 344.238 473.415 359.906 453.611 359.906Z" fill="#292A2E"/>
<path d="M461.055 320.344C461.527 320.344 461.979 320.161 462.313 319.835C462.647 319.509 462.835 319.067 462.835 318.607V310.197C462.835 305.547 458.697 301.763 453.611 301.763C448.524 301.763 444.386 305.547 444.386 310.197V318.029C444.382 318.26 444.425 318.489 444.513 318.704C444.6 318.918 444.731 319.113 444.896 319.278C445.062 319.442 445.26 319.573 445.478 319.662C445.696 319.752 445.93 319.797 446.166 319.797C446.403 319.797 446.637 319.752 446.855 319.662C447.073 319.573 447.271 319.442 447.436 319.278C447.602 319.113 447.732 318.918 447.82 318.704C447.908 318.489 447.951 318.26 447.946 318.029V310.197C447.946 307.462 450.489 305.237 453.611 305.237C456.732 305.237 459.275 307.462 459.275 310.197V318.608C459.275 319.068 459.463 319.51 459.797 319.835C460.13 320.161 460.583 320.344 461.055 320.344Z" fill="white"/>
<path d="M442.255 317.153H464.967C466.292 317.153 467.365 318.201 467.365 319.493V340.372C467.365 341.664 466.292 342.712 464.967 342.712H442.255C440.93 342.712 439.856 341.664 439.856 340.372V319.493C439.856 318.201 440.93 317.153 442.255 317.153Z" fill="white"/>
<path d="M455.872 327.866C455.872 328.28 455.753 328.685 455.529 329.037C455.304 329.388 454.982 329.67 454.601 329.852V333.242C454.601 333.498 454.497 333.743 454.312 333.924C454.127 334.104 453.876 334.206 453.614 334.206C453.352 334.206 453.101 334.104 452.916 333.924C452.731 333.743 452.627 333.498 452.627 333.242V329.852C452.263 329.68 451.954 329.416 451.731 329.088C451.507 328.759 451.378 328.379 451.356 327.985C451.334 327.592 451.421 327.2 451.607 326.85C451.793 326.5 452.071 326.206 452.413 325.996C452.755 325.787 453.149 325.671 453.552 325.66C453.956 325.65 454.355 325.745 454.709 325.935C455.062 326.126 455.356 326.406 455.561 326.745C455.767 327.085 455.875 327.471 455.875 327.866H455.872Z" fill="#292A2E"/>
<path d="M279.704 214.389H421.813C425.205 214.389 427.955 217.073 427.955 220.384V239.826C427.955 243.137 425.205 245.821 421.813 245.821H279.704C276.312 245.821 273.562 243.137 273.562 239.826V220.384C273.562 217.073 276.312 214.389 279.704 214.389Z" fill="white"/>
<path d="M279.705 246.36H421.813C423.588 246.358 425.289 245.669 426.545 244.444C427.8 243.219 428.506 241.558 428.508 239.826V220.384C428.506 218.652 427.8 216.991 426.545 215.766C425.29 214.541 423.588 213.852 421.813 213.849H279.705C277.93 213.851 276.228 214.541 274.973 215.766C273.717 216.991 273.011 218.651 273.009 220.384V239.826C273.011 241.558 273.718 243.219 274.973 244.444C276.228 245.669 277.93 246.358 279.705 246.36ZM421.813 214.928C423.295 214.93 424.716 215.505 425.764 216.528C426.812 217.551 427.401 218.937 427.402 220.384V239.826C427.401 241.272 426.811 242.659 425.763 243.681C424.715 244.704 423.295 245.279 421.813 245.281H279.705C278.223 245.279 276.802 244.704 275.754 243.681C274.706 242.659 274.117 241.272 274.115 239.826V220.384C274.116 218.937 274.706 217.551 275.754 216.528C276.802 215.505 278.223 214.93 279.705 214.928H421.813Z" fill="#292A2E"/>
<path d="M279.704 259.308H421.813C425.205 259.308 427.955 261.992 427.955 265.302V284.745C427.955 288.055 425.205 290.739 421.813 290.739H279.704C276.312 290.739 273.562 288.055 273.562 284.745V265.302C273.562 261.992 276.312 259.308 279.704 259.308Z" fill="white"/>
<path d="M279.705 291.278H421.813C423.588 291.276 425.29 290.587 426.545 289.362C427.8 288.136 428.506 286.475 428.508 284.743V265.302C428.506 263.57 427.8 261.909 426.545 260.685C425.289 259.46 423.588 258.771 421.813 258.769H279.705C277.93 258.77 276.228 259.459 274.973 260.684C273.718 261.909 273.011 263.57 273.009 265.302V284.743C273.011 286.475 273.717 288.137 274.972 289.362C276.227 290.587 277.93 291.276 279.705 291.278ZM421.813 259.847C423.295 259.849 424.715 260.424 425.763 261.447C426.811 262.47 427.401 263.856 427.402 265.302V284.743C427.401 286.189 426.811 287.576 425.763 288.598C424.715 289.621 423.295 290.196 421.813 290.198H279.705C278.223 290.196 276.802 289.621 275.754 288.598C274.706 287.576 274.116 286.189 274.115 284.743V265.302C274.116 263.856 274.706 262.469 275.754 261.447C276.802 260.424 278.223 259.849 279.705 259.847H421.813Z" fill="#292A2E"/>
<path d="M350.759 191.01C332.537 191.01 317.765 176.594 317.765 158.811C317.765 141.027 332.537 126.611 350.759 126.611C368.981 126.611 383.753 141.027 383.753 158.811C383.753 176.594 368.981 191.01 350.759 191.01Z" fill="white"/>
<path d="M350.759 191.549C357.394 191.549 363.88 189.629 369.396 186.032C374.913 182.434 379.213 177.321 381.752 171.339C384.291 165.357 384.955 158.774 383.661 152.424C382.367 146.073 379.172 140.239 374.48 135.661C369.788 131.082 363.811 127.964 357.304 126.701C350.796 125.438 344.051 126.086 337.921 128.564C331.791 131.042 326.552 135.238 322.866 140.622C319.18 146.006 317.212 152.335 317.212 158.811C317.222 167.49 320.76 175.812 327.049 181.95C333.338 188.087 341.865 191.54 350.759 191.549ZM350.759 127.151C357.175 127.151 363.447 129.007 368.782 132.486C374.117 135.965 378.275 140.91 380.731 146.695C383.186 152.48 383.829 158.846 382.577 164.987C381.325 171.129 378.235 176.77 373.698 181.198C369.161 185.625 363.381 188.641 357.088 189.862C350.795 191.084 344.272 190.457 338.344 188.061C332.416 185.664 327.35 181.606 323.785 176.4C320.22 171.193 318.317 165.072 318.317 158.811C318.327 150.417 321.748 142.369 327.83 136.434C333.912 130.499 342.158 127.16 350.759 127.151Z" fill="#292A2E"/>
<path opacity="0.5" d="M318.498 158.811C318.488 166.263 321.198 173.476 326.142 179.156C329.187 175.692 332.964 172.912 337.213 171.006C341.462 169.099 346.084 168.113 350.761 168.114C355.438 168.115 360.059 169.103 364.308 171.01C368.557 172.918 372.332 175.7 375.376 179.165C378.733 175.298 381.084 170.698 382.229 165.755C383.374 160.812 383.28 155.672 381.954 150.772C380.628 145.872 378.109 141.356 374.612 137.61C371.116 133.863 366.744 130.995 361.868 129.251C356.992 127.506 351.757 126.935 346.607 127.588C341.457 128.24 336.545 130.096 332.288 132.998C328.03 135.9 324.553 139.762 322.152 144.256C319.752 148.75 318.498 153.743 318.498 158.811Z" fill="#3F5FE6"/>
<path d="M326.142 179.156C329.17 182.646 332.94 185.45 337.191 187.374C341.442 189.297 346.071 190.294 350.757 190.295C355.442 190.296 360.072 189.3 364.324 187.378C368.575 185.456 372.347 182.654 375.376 179.165C372.332 175.7 368.557 172.918 364.308 171.01C360.059 169.103 355.438 168.115 350.761 168.114C346.084 168.113 341.462 169.099 337.213 171.006C332.964 172.912 329.187 175.692 326.142 179.156Z" fill="white"/>
<path d="M350.759 162.24C343.557 162.24 337.718 156.542 337.718 149.513C337.718 142.485 343.557 136.787 350.759 136.787C357.96 136.787 363.799 142.485 363.799 149.513C363.799 156.542 357.96 162.24 350.759 162.24Z" fill="white"/>
<g opacity="0.4">
<path d="M415.993 278.851C413.827 278.851 412.071 277.138 412.071 275.024C412.071 272.91 413.827 271.196 415.993 271.196C418.159 271.196 419.915 272.91 419.915 275.024C419.915 277.138 418.159 278.851 415.993 278.851Z" fill="#292A2E"/>
<path d="M403.724 278.851C401.558 278.851 399.802 277.138 399.802 275.024C399.802 272.91 401.558 271.196 403.724 271.196C405.891 271.196 407.646 272.91 407.646 275.024C407.646 277.138 405.891 278.851 403.724 278.851Z" fill="#292A2E"/>
<path d="M391.456 278.851C389.29 278.851 387.534 277.138 387.534 275.024C387.534 272.91 389.29 271.196 391.456 271.196C393.622 271.196 395.378 272.91 395.378 275.024C395.378 277.138 393.622 278.851 391.456 278.851Z" fill="#292A2E"/>
<path d="M379.186 278.851C377.02 278.851 375.264 277.138 375.264 275.024C375.264 272.91 377.02 271.196 379.186 271.196C381.352 271.196 383.108 272.91 383.108 275.024C383.108 277.138 381.352 278.851 379.186 278.851Z" fill="#292A2E"/>
<path d="M366.919 278.851C364.753 278.851 362.997 277.138 362.997 275.024C362.997 272.91 364.753 271.196 366.919 271.196C369.085 271.196 370.841 272.91 370.841 275.024C370.841 277.138 369.085 278.851 366.919 278.851Z" fill="#292A2E"/>
<path d="M354.65 278.851C352.484 278.851 350.728 277.138 350.728 275.024C350.728 272.91 352.484 271.196 354.65 271.196C356.816 271.196 358.572 272.91 358.572 275.024C358.572 277.138 356.816 278.851 354.65 278.851Z" fill="#292A2E"/>
<path d="M342.381 278.851C340.215 278.851 338.459 277.138 338.459 275.024C338.459 272.91 340.215 271.196 342.381 271.196C344.547 271.196 346.303 272.91 346.303 275.024C346.303 277.138 344.547 278.851 342.381 278.851Z" fill="#292A2E"/>
</g>
<g opacity="0.3">
<path d="M412.103 229.874V231.169H417.14V229.874H412.103Z" fill="black"/>
<path d="M405.843 229.874V231.169H410.88V229.874H405.843Z" fill="black"/>
<path d="M399.584 229.874V231.169H404.621V229.874H399.584Z" fill="black"/>
<path d="M393.325 229.874V231.169H398.362V229.874H393.325Z" fill="black"/>
<path d="M387.065 229.874V231.169H392.103V229.874H387.065Z" fill="black"/>
<path d="M375.769 237.178C376.89 237.74 378.138 238.015 379.397 237.976C382.741 237.976 385.576 235.588 385.576 231.766C385.576 227.667 382.659 224.124 378.133 224.124C374.584 224.124 372.198 226.551 372.198 229.876C372.198 232.861 373.912 234.612 375.828 234.612C376.644 234.612 377.398 234.073 377.337 232.861H377.419C377.683 233.386 378.092 233.828 378.6 234.138C379.108 234.447 379.694 234.612 380.293 234.612C381.476 234.612 382.496 233.677 382.496 232.105C382.498 231.485 382.375 230.871 382.133 230.297C381.89 229.724 381.534 229.203 381.085 228.765C380.636 228.326 380.102 227.979 379.515 227.743C378.927 227.506 378.298 227.386 377.662 227.388C376.913 227.377 376.17 227.52 375.48 227.806L376.174 231.408C376.48 232.919 376.235 233.62 375.562 233.638C374.522 233.657 373.359 232.304 373.359 229.996C373.359 227.11 375.134 225.04 378.295 225.04C381.619 225.04 384.413 227.607 384.413 231.647C384.413 234.971 382.19 237.021 379.171 237.021C378.101 237.045 377.042 236.806 376.092 236.324L375.769 237.178ZM376.891 228.581C377.222 228.486 377.565 228.439 377.91 228.442C379.705 228.442 381.153 230.093 381.153 232.024C381.153 232.899 380.704 233.534 379.807 233.534C378.624 233.534 377.543 232.061 377.32 230.827L376.891 228.581Z" fill="black"/>
<path d="M365.779 229.874V231.169H370.816V229.874H365.779Z" fill="black"/>
<path d="M359.52 229.874V231.169H364.558V229.874H359.52Z" fill="black"/>
<path d="M353.261 229.874V231.169H358.298V229.874H353.261Z" fill="black"/>
</g>
</g>
<defs>
<clipPath id="clip0_248_62">
<rect width="492" height="465" fill="white" transform="matrix(-1 0 0 1 511 98)"/>
</clipPath>
</defs>
</svg>
