<svg width="15" height="15" viewBox="0 0 15 15" fill="none" xmlns="http://www.w3.org/2000/svg">
<g clip-path="url(#clip0_1078_330)">
<path d="M0 7.5C0 5.51088 0.790176 3.60322 2.1967 2.1967C3.60322 0.790176 5.51088 0 7.5 0C9.48912 0 11.3968 0.790176 12.8033 2.1967C14.2098 3.60322 15 5.51088 15 7.5C15 9.48912 14.2098 11.3968 12.8033 12.8033C11.3968 14.2098 9.48912 15 7.5 15C5.51088 15 3.60322 14.2098 2.1967 12.8033C0.790176 11.3968 0 9.48912 0 7.5ZM7.5 1.40625C5.88384 1.40625 4.33387 2.04827 3.19107 3.19107C2.04827 4.33387 1.40625 5.88384 1.40625 7.5C1.40625 9.11616 2.04827 10.6661 3.19107 11.8089C4.33387 12.9517 5.88384 13.5938 7.5 13.5938C9.11616 13.5938 10.6661 12.9517 11.8089 11.8089C12.9517 10.6661 13.5938 9.11616 13.5938 7.5C13.5938 5.88384 12.9517 4.33387 11.8089 3.19107C10.6661 2.04827 9.11616 1.40625 7.5 1.40625ZM6.09375 7.26562C6.09375 7.07914 6.16783 6.9003 6.29969 6.76844C6.43155 6.63658 6.61039 6.5625 6.79688 6.5625H7.73438C7.92086 6.5625 8.0997 6.63658 8.23156 6.76844C8.36342 6.9003 8.4375 7.07914 8.4375 7.26562V9.84375H8.67188C8.85836 9.84375 9.0372 9.91783 9.16906 10.0497C9.30092 10.1816 9.375 10.3604 9.375 10.5469C9.375 10.7334 9.30092 10.9122 9.16906 11.0441C9.0372 11.1759 8.85836 11.25 8.67188 11.25H6.79688C6.61039 11.25 6.43155 11.1759 6.29969 11.0441C6.16783 10.9122 6.09375 10.7334 6.09375 10.5469C6.09375 10.3604 6.16783 10.1816 6.29969 10.0497C6.43155 9.91783 6.61039 9.84375 6.79688 9.84375H7.03125V7.96875H6.79688C6.61039 7.96875 6.43155 7.89467 6.29969 7.76281C6.16783 7.63095 6.09375 7.45211 6.09375 7.26562ZM7.5 5.625C7.25136 5.625 7.0129 5.52623 6.83709 5.35041C6.66127 5.1746 6.5625 4.93614 6.5625 4.6875C6.5625 4.43886 6.66127 4.2004 6.83709 4.02459C7.0129 3.84877 7.25136 3.75 7.5 3.75C7.74864 3.75 7.9871 3.84877 8.16291 4.02459C8.33873 4.2004 8.4375 4.43886 8.4375 4.6875C8.4375 4.93614 8.33873 5.1746 8.16291 5.35041C7.9871 5.52623 7.74864 5.625 7.5 5.625Z" fill="white"/>
</g>
<defs>
<clipPath id="clip0_1078_330">
<rect width="15" height="15" fill="white"/>
</clipPath>
</defs>
</svg>
