<svg width="27" height="20" viewBox="0 0 27 20" fill="none" xmlns="http://www.w3.org/2000/svg">
<path d="M10.8 8.57133H6.88635L6.8877 8.55847C7.06397 7.64506 7.40898 6.77748 7.9029 6.00553C8.63791 4.85952 9.6689 3.96141 10.8729 3.41831C11.2806 3.23545 11.7058 3.09544 12.1392 3.00258C13.0382 2.80971 13.9645 2.80971 14.8635 3.00258C16.1554 3.28272 17.3409 3.95892 18.2722 4.94693L20.1839 2.92972C19.3223 2.01775 18.303 1.28973 17.1814 0.78537C16.6095 0.529118 16.0148 0.333861 15.4062 0.202495C14.1505 -0.0674982 12.8563 -0.0674982 11.6006 0.202495C10.9915 0.334405 10.3964 0.530137 9.82395 0.786798C8.13716 1.54411 6.69321 2.80128 5.66595 4.40691C4.9746 5.48959 4.49113 6.70554 4.24305 7.98559C4.20525 8.17846 4.185 8.3756 4.158 8.57133H0L5.4 14.2858L10.8 8.57133ZM16.2 11.4286H20.1137L20.1123 11.44C19.7596 13.2711 18.7396 14.8816 17.2733 15.923C16.544 16.4461 15.7241 16.8112 14.8608 16.9973C13.9623 17.1902 13.0364 17.1902 12.1379 16.9973C11.2747 16.8108 10.4549 16.4457 9.7254 15.923C9.36714 15.6665 9.03264 15.3747 8.7264 15.0515L6.8175 17.0716C7.67948 17.9833 8.6993 18.7109 9.82125 19.2145C10.3937 19.4717 10.9917 19.6674 11.5965 19.7974C12.8518 20.0675 14.1455 20.0675 15.4008 19.7974C17.8207 19.2659 19.9493 17.7565 21.334 15.5901C22.0247 14.5083 22.5077 13.2933 22.7556 12.0143C22.7921 11.8214 22.8137 11.6243 22.8407 11.4286H27L21.6 5.71409L16.2 11.4286Z" fill="#1B2559"/>
</svg>
