<svg width="31" height="29" viewBox="0 0 31 29" fill="none" xmlns="http://www.w3.org/2000/svg">
<rect width="31" height="29" rx="5" fill="#9A55FF"/>
<path d="M14.2 8C15.5791 8 16.9018 8.54786 17.877 9.52304C18.8521 10.4982 19.4 11.8209 19.4 13.2C19.4 14.488 18.928 15.672 18.152 16.584L18.368 16.8H19L23 20.8L21.8 22L17.8 18V17.368L17.584 17.152C16.6404 17.9574 15.4406 18.3999 14.2 18.4C12.8209 18.4 11.4982 17.8521 10.523 16.877C9.54786 15.9018 9 14.5791 9 13.2C9 11.8209 9.54786 10.4982 10.523 9.52304C11.4982 8.54786 12.8209 8 14.2 8ZM14.2 9.6C12.2 9.6 10.6 11.2 10.6 13.2C10.6 15.2 12.2 16.8 14.2 16.8C16.2 16.8 17.8 15.2 17.8 13.2C17.8 11.2 16.2 9.6 14.2 9.6Z" fill="white"/>
</svg>
