<svg width="16" height="13" viewBox="0 0 16 13" fill="none" xmlns="http://www.w3.org/2000/svg">
<path d="M3.71932 1.04085C3.85997 0.908063 4.0507 0.833464 4.24957 0.833464C4.44845 0.833464 4.63918 0.908063 4.77982 1.04085L7.77982 3.87419C7.91644 4.00778 7.99204 4.18671 7.99033 4.37243C7.98862 4.55815 7.90974 4.73581 7.77069 4.86714C7.63163 4.99847 7.44352 5.07297 7.24687 5.07458C7.05023 5.0762 6.86077 5.0048 6.71932 4.87577L4.99957 3.25156V11.4583C4.99957 11.6462 4.92056 11.8263 4.7799 11.9592C4.63925 12.092 4.44849 12.1666 4.24957 12.1666C4.05066 12.1666 3.8599 12.092 3.71924 11.9592C3.57859 11.8263 3.49957 11.6462 3.49957 11.4583V3.25156L1.77982 4.87577C1.63837 5.0048 1.44892 5.0762 1.25227 5.07458C1.05562 5.07297 0.867515 4.99847 0.728459 4.86714C0.589403 4.73581 0.510526 4.55815 0.508817 4.37243C0.507109 4.18671 0.582704 4.00778 0.719323 3.87419L3.71932 1.04085ZM10.9996 9.7484V1.54165C10.9996 1.35378 11.0786 1.17362 11.2192 1.04078C11.3599 0.907941 11.5507 0.833313 11.7496 0.833313C11.9485 0.833313 12.1393 0.907941 12.2799 1.04078C12.4206 1.17362 12.4996 1.35378 12.4996 1.54165V9.7484L14.2193 8.12419C14.3608 7.99516 14.5502 7.92376 14.7469 7.92538C14.9435 7.92699 15.1316 8.00149 15.2707 8.13282C15.4097 8.26415 15.4886 8.44181 15.4903 8.62753C15.492 8.81325 15.4164 8.99218 15.2798 9.12577L12.2798 11.9591C12.1392 12.0919 11.9484 12.1665 11.7496 12.1665C11.5507 12.1665 11.36 12.0919 11.2193 11.9591L8.21932 9.12577C8.0827 8.99218 8.00711 8.81325 8.00882 8.62753C8.01053 8.44181 8.0894 8.26415 8.22846 8.13282C8.36752 8.00149 8.55562 7.92699 8.75227 7.92538C8.94892 7.92376 9.13837 7.99516 9.27982 8.12419L10.9996 9.7484Z" fill="#595959"/>
</svg>
