<svg width="31" height="20" viewBox="0 0 31 20" fill="none" xmlns="http://www.w3.org/2000/svg">
<path d="M21.1364 8.57143C23.4755 8.57143 25.3495 6.65714 25.3495 4.28571C25.3495 1.91429 23.4755 0 21.1364 0C18.7973 0 16.9091 1.91429 16.9091 4.28571C16.9091 6.65714 18.7973 8.57143 21.1364 8.57143ZM9.86364 8.57143C12.2027 8.57143 14.0768 6.65714 14.0768 4.28571C14.0768 1.91429 12.2027 0 9.86364 0C7.52455 0 5.63636 1.91429 5.63636 4.28571C5.63636 6.65714 7.52455 8.57143 9.86364 8.57143ZM9.86364 11.4286C6.58045 11.4286 0 13.1 0 16.4286V20H19.7273V16.4286C19.7273 13.1 13.1468 11.4286 9.86364 11.4286ZM21.1364 11.4286C20.7277 11.4286 20.2627 11.4571 19.7695 11.5C21.4041 12.7 22.5455 14.3143 22.5455 16.4286V20H31V16.4286C31 13.1 24.4195 11.4286 21.1364 11.4286Z" fill="#1B2559"/>
</svg>
