<svg width="13" height="14" viewBox="0 0 13 14" fill="none" xmlns="http://www.w3.org/2000/svg">
<path d="M6.37152 0.875C4.7768 0.894636 3.25284 1.54625 2.12511 2.69068C0.99739 3.83511 0.355287 5.38165 0.335938 7C0.355287 8.61835 0.99739 10.1649 2.12511 11.3093C3.25284 12.4537 4.7768 13.1054 6.37152 13.125C7.96625 13.1054 9.4902 12.4537 10.6179 11.3093C11.7457 10.1649 12.3878 8.61835 12.4071 7C12.3878 5.38165 11.7457 3.83511 10.6179 2.69068C9.4902 1.54625 7.96625 0.894636 6.37152 0.875ZM9.82043 7.4375H6.80263V10.5H5.94041V7.4375H2.92262V6.5625H5.94041V3.5H6.80263V6.5625H9.82043V7.4375Z" fill="white"/>
</svg>
