<svg width="53" height="42" viewBox="0 0 53 42" fill="none" xmlns="http://www.w3.org/2000/svg">
    <path fill-rule="evenodd" clip-rule="evenodd"
        d="M4.37005 7.56848C7.43061 10.629 12.3928 10.629 15.4533 7.56848C18.5139 4.50793 18.5139 -0.454217 15.4533 -3.51477C12.3928 -6.57533 7.43061 -6.57533 4.37005 -3.51477C1.3095 -0.454217 1.3095 4.50793 4.37005 7.56848ZM2.95584 -4.92898C-0.885763 -1.08738 -0.885763 5.14109 2.95584 8.9827C6.79744 12.8243 13.0259 12.8243 16.8675 8.9827C20.7091 5.14109 20.7091 -1.08738 16.8675 -4.92898C13.0259 -8.77059 6.79744 -8.77059 2.95584 -4.92898ZM19.4278 22.6259C22.4883 25.6865 27.4505 25.6865 30.511 22.6259C33.5716 19.5654 33.5716 14.6032 30.511 11.5427C27.4505 8.48213 22.4883 8.48213 19.4278 11.5427C16.3672 14.6032 16.3672 19.5654 19.4278 22.6259ZM18.0136 10.1285C14.172 13.9701 14.172 20.1985 18.0136 24.0401C21.8552 27.8818 28.0836 27.8818 31.9252 24.0401C35.7668 20.1985 35.7668 13.9701 31.9252 10.1285C28.0836 6.28687 21.8552 6.28686 18.0136 10.1285ZM45.5686 37.6833C42.5081 40.7438 37.5459 40.7438 34.4854 37.6833C31.4248 34.6227 31.4248 29.6606 34.4854 26.6C37.5459 23.5395 42.5081 23.5395 45.5686 26.6C48.6292 29.6606 48.6292 34.6227 45.5686 37.6833ZM33.0712 39.0975C29.2296 35.2559 29.2296 29.0274 33.0712 25.1858C36.9128 21.3442 43.1412 21.3442 46.9828 25.1858C50.8245 29.0274 50.8245 35.2559 46.9828 39.0975C43.1412 42.9391 36.9128 42.9391 33.0712 39.0975ZM19.4278 -7.489C22.4883 -4.42845 27.4505 -4.42844 30.511 -7.489C33.5716 -10.5496 33.5716 -15.5117 30.511 -18.5723C27.4505 -21.6328 22.4883 -21.6328 19.4278 -18.5723C16.3672 -15.5117 16.3672 -10.5496 19.4278 -7.489ZM18.0136 -19.9865C14.172 -16.1449 14.172 -9.91639 18.0136 -6.07479C21.8552 -2.23318 28.0836 -2.23318 31.9252 -6.07479C35.7669 -9.91639 35.7669 -16.1449 31.9252 -19.9865C28.0836 -23.8281 21.8552 -23.8281 18.0136 -19.9865ZM45.5686 7.5686C42.5081 10.6292 37.5459 10.6292 34.4854 7.5686C31.4248 4.50805 31.4248 -0.454097 34.4854 -3.51465C37.5459 -6.57521 42.5081 -6.57521 45.5686 -3.51465C48.6292 -0.454098 48.6292 4.50805 45.5686 7.5686ZM33.0712 8.98282C29.2296 5.14121 29.2296 -1.08726 33.0712 -4.92886C36.9128 -8.77047 43.1412 -8.77047 46.9829 -4.92887C50.8245 -1.08726 50.8245 5.14121 46.9828 8.98282C43.1412 12.8244 36.9128 12.8244 33.0712 8.98282ZM49.543 22.6262C52.6035 25.6868 57.5657 25.6868 60.6262 22.6262C63.6868 19.5656 63.6868 14.6035 60.6262 11.543C57.5657 8.4824 52.6035 8.4824 49.543 11.543C46.4824 14.6035 46.4824 19.5657 49.543 22.6262ZM48.1288 10.1287C44.2872 13.9703 44.2872 20.1988 48.1288 24.0404C51.9704 27.882 58.1988 27.882 62.0405 24.0404C65.8821 20.1988 65.8821 13.9703 62.0405 10.1287C58.1989 6.28713 51.9704 6.28713 48.1288 10.1287ZM45.5686 -22.5461C42.5081 -19.4855 37.5459 -19.4855 34.4854 -22.5461C31.4248 -25.6066 31.4248 -30.5688 34.4854 -33.6293C37.5459 -36.6899 42.5081 -36.6899 45.5686 -33.6293C48.6292 -30.5688 48.6292 -25.6066 45.5686 -22.5461ZM33.0712 -21.1319C29.2296 -24.9735 29.2296 -31.2019 33.0712 -35.0435C36.9128 -38.8851 43.1412 -38.8851 46.9828 -35.0435C50.8245 -31.2019 50.8245 -24.9735 46.9829 -21.1319C43.1412 -17.2902 36.9128 -17.2902 33.0712 -21.1319ZM49.543 -7.489C52.6035 -4.42844 57.5657 -4.42844 60.6262 -7.489C63.6868 -10.5496 63.6868 -15.5117 60.6262 -18.5723C57.5657 -21.6328 52.6035 -21.6328 49.543 -18.5723C46.4824 -15.5117 46.4824 -10.5496 49.543 -7.489ZM48.1288 -19.9865C44.2872 -16.1449 44.2872 -9.91639 48.1288 -6.07479C51.9704 -2.23318 58.1988 -2.23318 62.0405 -6.07479C65.8821 -9.91639 65.8821 -16.1449 62.0405 -19.9865C58.1988 -23.8281 51.9704 -23.8281 48.1288 -19.9865ZM75.6838 7.5686C72.6233 10.6292 67.6611 10.6292 64.6006 7.5686C61.54 4.50805 61.54 -0.454095 64.6006 -3.51465C67.6611 -6.5752 72.6233 -6.5752 75.6838 -3.51465C78.7444 -0.454095 78.7444 4.50805 75.6838 7.5686ZM63.1864 8.98282C59.3448 5.14121 59.3448 -1.08726 63.1864 -4.92886C67.028 -8.77047 73.2565 -8.77047 77.0981 -4.92886C80.9397 -1.08726 80.9397 5.14121 77.0981 8.98282C73.2565 12.8244 67.028 12.8244 63.1864 8.98282Z"
        fill="#EFEBF2" fill-opacity="0.2" />
</svg>