<svg width="12" height="12" viewBox="0 0 12 12" fill="none" xmlns="http://www.w3.org/2000/svg">
    <path
        d="M0.166016 10.0837C0.166016 11.0753 0.924349 11.8337 1.91602 11.8337H10.0827C11.0743 11.8337 11.8327 11.0753 11.8327 10.0837V5.41699H0.166016V10.0837ZM10.0827 1.33366H8.91602V0.750326C8.91602 0.400326 8.68268 0.166992 8.33268 0.166992C7.98268 0.166992 7.74935 0.400326 7.74935 0.750326V1.33366H4.24935V0.750326C4.24935 0.400326 4.01602 0.166992 3.66602 0.166992C3.31602 0.166992 3.08268 0.400326 3.08268 0.750326V1.33366H1.91602C0.924349 1.33366 0.166016 2.09199 0.166016 3.08366V4.25033H11.8327V3.08366C11.8327 2.09199 11.0743 1.33366 10.0827 1.33366Z"
        fill="#9A55FF" />
</svg>