<svg width="43" height="42" viewBox="0 0 43 42" fill="none" xmlns="http://www.w3.org/2000/svg">
<rect x="0.5" y="0.5" width="42" height="41" rx="20.5" fill="#3063E4" stroke="#3063E4"/>
<path d="M28.95 31C26.8 31 24.7043 30.5207 22.663 29.562C20.6217 28.6033 18.8133 27.3367 17.238 25.762C15.6627 24.1873 14.396 22.379 13.438 20.337C12.48 18.295 12.0007 16.1993 12 14.05C12 13.75 12.1 13.5 12.3 13.3C12.5 13.1 12.75 13 13.05 13H17.1C17.3333 13 17.5417 13.075 17.725 13.225C17.9083 13.375 18.0167 13.5667 18.05 13.8L18.7 17.3C18.7333 17.5333 18.729 17.746 18.687 17.938C18.645 18.13 18.5493 18.3007 18.4 18.45L16 20.9C16.7 22.1 17.575 23.225 18.625 24.275C19.675 25.325 20.8333 26.2333 22.1 27L24.45 24.65C24.6 24.5 24.796 24.3877 25.038 24.313C25.28 24.2383 25.5173 24.2173 25.75 24.25L29.2 24.95C29.4333 25 29.625 25.1127 29.775 25.288C29.925 25.4633 30 25.6673 30 25.9V29.95C30 30.25 29.9 30.5 29.7 30.7C29.5 30.9 29.25 31 28.95 31Z" fill="white"/>
</svg>
