<svg width="31" height="29" viewBox="0 0 31 29" fill="none" xmlns="http://www.w3.org/2000/svg">
<rect width="31" height="29" rx="5" fill="#2C2C2C"/>
<path d="M20.9167 10H12.7917C12.4179 10 12.1254 10.175 11.9304 10.44L9 14.5L11.9304 18.555C12.1254 18.82 12.4179 19 12.7917 19H20.9167C21.204 19 21.4795 18.8946 21.6827 18.7071C21.8859 18.5196 22 18.2652 22 18V11C22 10.7348 21.8859 10.4804 21.6827 10.2929C21.4795 10.1054 21.204 10 20.9167 10ZM19.2917 16.295L18.5279 17L16.5833 15.205L14.6388 17L13.875 16.295L15.8196 14.5L13.875 12.705L14.6388 12L16.5833 13.795L18.5279 12L19.2917 12.705L17.3471 14.5" fill="white"/>
</svg>
