<svg width="50" height="88" viewBox="0 0 50 88" fill="none" xmlns="http://www.w3.org/2000/svg">
<path d="M26.9155 38.6222C15.7662 35.7378 12.1807 32.7556 12.1807 28.1111C12.1807 22.7822 17.1415 19.0667 25.442 19.0667C34.1847 19.0667 37.4263 23.2222 37.721 29.3333H48.5756C48.2318 20.9244 43.0747 13.2 32.8094 10.7067V0H18.0747V10.56C8.54617 12.6133 0.884086 18.7733 0.884086 28.2089C0.884086 39.5022 10.2652 45.1244 23.9686 48.4C36.2475 51.3333 38.7033 55.6356 38.7033 60.1822C38.7033 63.5556 36.2967 68.9333 25.442 68.9333C15.3242 68.9333 11.3458 64.4356 10.8055 58.6667H0C0.589391 69.3733 8.6444 75.3867 18.0747 77.3911V88H32.8094V77.4889C42.387 75.68 50 70.1556 50 60.1333C50 46.2489 38.0648 41.5067 26.9155 38.6222Z" fill="#676767"/>
</svg>
