<svg width="20" height="18" viewBox="0 0 163 135" fill="none" xmlns="http://www.w3.org/2000/svg">
<path d="M160.258 117.566C157.126 114.495 119.173 99.8736 112.287 97.1155C105.436 94.4056 102.703 86.8962 102.703 86.8962C102.703 86.8962 99.6194 88.5944 99.6194 83.8249C99.6194 79.0495 102.703 86.8962 105.787 68.4808C105.787 68.4808 114.342 66.0901 112.643 46.3198H110.588C110.588 46.3198 115.727 25.1826 110.588 18.0284C105.43 10.8743 103.41 6.10482 92.0856 2.68432C80.7789 -0.730161 84.8904 -0.0496732 76.6795 0.299604C68.4564 0.642858 61.6119 5.07506 61.6119 7.45375C61.6119 7.45375 56.4725 7.79701 54.4288 9.8445C52.3731 11.892 48.9508 21.4308 48.9508 23.8156C48.9508 26.2003 50.6619 42.2429 52.3731 45.6393L50.3354 46.3018C48.6243 66.0781 57.1799 68.4748 57.1799 68.4748C60.2636 86.8901 63.3472 79.0434 63.3472 83.8189C63.3472 88.5883 60.2636 86.8901 60.2636 86.8901C60.2636 86.8901 57.5246 94.3936 50.6801 97.1095C43.8356 99.8375 5.8402 114.495 2.75051 117.56C-0.33314 120.692 0.0115029 135 0.0115029 135H162.985C162.985 135 163.366 120.68 160.246 117.554L160.258 117.566ZM121.955 131.116H94.3711V123.588H121.955V131.116Z" fill="#676767"/>
</svg>
