<svg width="31" height="31" viewBox="0 0 31 31" fill="none" xmlns="http://www.w3.org/2000/svg">
<rect width="31" height="31" rx="4" fill="#9A55FF"/>
<path d="M17.375 23V16.4828L22.7515 10.931C22.8314 10.8487 22.8946 10.7508 22.9372 10.6431C22.9799 10.5353 23.0012 10.4198 22.9999 10.3034V9.48276C22.9999 9.35472 22.9506 9.23193 22.8627 9.1414C22.7747 9.05086 22.6555 9 22.5312 9H8.46875C8.34443 9 8.2252 9.05086 8.13729 9.1414C8.04939 9.23193 8 9.35472 8 9.48276V10.289C8.00009 10.403 8.02208 10.5159 8.06472 10.6211C8.10736 10.7263 8.1698 10.8218 8.24844 10.9021L13.625 16.5214V21.4455L17.375 23Z" fill="white"/>
</svg>
