<svg width="58" height="56" viewBox="0 0 58 56" fill="none" xmlns="http://www.w3.org/2000/svg">
<rect width="58" height="56" rx="3.5" fill="#FFA800"/>
<path d="M35.4987 38.8334C36.0733 38.8334 36.6244 38.6051 37.0308 38.1988C37.4371 37.7924 37.6654 37.2413 37.6654 36.6667V23.6667L31.1654 17.1667H22.4987C21.9241 17.1667 21.373 17.395 20.9666 17.8013C20.5603 18.2076 20.332 18.7587 20.332 19.3334V36.6667C20.332 37.2413 20.5603 37.7924 20.9666 38.1988C21.373 38.6051 21.9241 38.8334 22.4987 38.8334H35.4987ZM30.082 19.3334L35.4987 24.75H30.082V19.3334ZM23.582 23.6667H26.832V25.8334H23.582V23.6667ZM23.582 28H34.4154V30.1667H23.582V28ZM23.582 32.3334H34.4154V34.5H23.582V32.3334Z" fill="white"/>
</svg>
