<?xml version="1.0" encoding="UTF-8"?>
<svg version="1.1" xmlns="http://www.w3.org/2000/svg" width="340" height="92">
<path d="M0 0 C112.2 0 224.4 0 340 0 C340 30.36 340 60.72 340 92 C227.8 92 115.6 92 0 92 C0 61.64 0 31.28 0 0 Z " fill="#FDFDFC" transform="translate(0,0)"/>
<path d="M0 0 C3.1875 1.9375 3.1875 1.9375 6 4 C7.3191582 4.69429379 8.64649406 5.37530495 10 6 C10 6.33 10 6.66 10 7 C9.38253906 7.01417969 8.76507813 7.02835938 8.12890625 7.04296875 C-0.33699277 7.51973932 -6.65407939 10.12194868 -12.4375 16.4375 C-16.72282653 21.50419661 -17.2762293 27.04759308 -17.25 33.5 C-17.25515625 34.7684375 -17.2603125 36.036875 -17.265625 37.34375 C-17.15721867 40.97624274 -17.15721867 40.97624274 -15.921875 44.15625 C-14.88462744 47.35589502 -14.7877408 48.87364733 -16 52 C-17.828125 53.484375 -17.828125 53.484375 -20.25 54.75 C-24.7343273 57.23262758 -28.93464242 59.93460049 -33.125 62.875 C-33.70540039 63.28073242 -34.28580078 63.68646484 -34.88378906 64.10449219 C-36.25773108 65.06699517 -37.62914941 66.03309911 -39 67 C-39.33 65.68 -39.66 64.36 -40 63 C-39.01 62.505 -39.01 62.505 -38 62 C-38.495 60.515 -38.495 60.515 -39 59 C-39.13788791 57.67262853 -39.22917358 56.34004913 -39.28808594 55.00683594 C-39.34122955 53.80979034 -39.34122955 53.80979034 -39.39544678 52.58856201 C-39.52004323 48.93986124 -39.60995926 45.2912623 -39.6796875 41.64111328 C-39.7264041 39.72021749 -39.79462777 37.79971948 -39.88476562 35.88037109 C-40.61932339 19.95307572 -40.61932339 19.95307572 -36.75292969 15.28979492 C-33.89812989 13.4596381 -31.1650619 12.20126289 -28 11 C-26.6875361 10.2627668 -25.38767179 9.5020354 -24.109375 8.70703125 C-23.00078125 8.08183594 -21.8921875 7.45664062 -20.75 6.8125 C-19.63109375 6.17957031 -18.5121875 5.54664063 -17.359375 4.89453125 C-16.25078125 4.26933594 -15.1421875 3.64414063 -14 3 C-13.38842041 2.62794434 -12.77684082 2.25588867 -12.14672852 1.87255859 C-7.53429991 -0.90307296 -5.26197765 -1.53075713 0 0 Z " fill="#EC9226" transform="translate(62,11)"/>
<path d="M0 0 C3.3 0 6.6 0 10 0 C10.67031719 1.9570868 11.33614683 3.91571113 12 5.875 C12.556875 7.51082031 12.556875 7.51082031 13.125 9.1796875 C14 12 14 12 14 14 C14.66 14 15.32 14 16 14 C16.33 15.98 16.66 17.96 17 20 C17.99 20 18.98 20 20 20 C21.32 14.06 22.64 8.12 24 2 C24.66 2 25.32 2 26 2 C26 1.34 26 0.68 26 0 C29.3 0 32.6 0 36 0 C36 11.22 36 22.44 36 34 C33.69 34 31.38 34 29 34 C28 33 28 33 27.90234375 30.27734375 C27.91394531 29.17519531 27.92554688 28.07304688 27.9375 26.9375 C27.94652344 25.83277344 27.95554688 24.72804688 27.96484375 23.58984375 C27.97644531 22.73519531 27.98804688 21.88054688 28 21 C27.34 21 26.68 21 26 21 C25.83564453 22.13888672 25.83564453 22.13888672 25.66796875 23.30078125 C25.43013672 24.79158203 25.43013672 24.79158203 25.1875 26.3125 C25.03667969 27.29863281 24.88585937 28.28476562 24.73046875 29.30078125 C23.95599104 32.16262134 23.39543338 33.29555702 21 35 C17.8125 35.1875 17.8125 35.1875 15 35 C12.26615793 29.14176699 10.62272674 23.25908886 9 17 C8.67 22.61 8.34 28.22 8 34 C5.69 34 3.38 34 1 34 C0 33 0 33 -0.11352539 29.85717773 C-0.11336633 28.46597303 -0.10767506 27.07476239 -0.09765625 25.68359375 C-0.0962413 24.95253922 -0.09482635 24.22148468 -0.09336853 23.46827698 C-0.08775408 21.12464368 -0.07519922 18.78110461 -0.0625 16.4375 C-0.05748686 14.85221492 -0.05292363 13.26692834 -0.04882812 11.68164062 C-0.03777997 7.7877239 -0.02050572 3.89387795 0 0 Z " fill="#EF9529" transform="translate(177,26)"/>
<path d="M0 0 C4.2098069 1.79906278 5.89942775 3.89336353 8.015625 7.890625 C9.33173451 12.0478598 9.48079822 15.91039799 9.5 20.25 C9.50612305 21.03052734 9.51224609 21.81105469 9.51855469 22.61523438 C9.40898391 27.62111506 8.70032575 31.29967425 5 35 C4.896875 36.134375 4.79375 37.26875 4.6875 38.4375 C4.460625 39.613125 4.23375 40.78875 4 42 C2 43.25 2 43.25 0 44 C-0.33 44.99 -0.66 45.98 -1 47 C-2.65204456 47.70211894 -4.31923769 48.36971413 -6 49 C-6.495 49.99 -6.495 49.99 -7 51 C-9.0390625 51.9296875 -9.0390625 51.9296875 -11.625 52.875 C-14.91906823 54.13033259 -17.96983235 55.44724203 -21 57.25 C-24 59 -24 59 -26 59 C-26.33 59.99 -26.66 60.98 -27 62 C-29.64 62 -32.28 62 -35 62 C-35 61.34 -35 60.68 -35 60 C-35.94875 59.690625 -36.8975 59.38125 -37.875 59.0625 C-41 58 -41 58 -43 57 C-43 56.34 -43 55.68 -43 55 C-47.75565744 53.38307647 -51.10824541 52.63485918 -56 54 C-56.66 54.66 -57.32 55.32 -58 56 C-60.625 56.125 -60.625 56.125 -63 56 C-60.03693129 52.94433539 -56.98279839 50.02864172 -53.8125 47.1875 C-52.80123047 46.28064453 -52.80123047 46.28064453 -51.76953125 45.35546875 C-50 44 -50 44 -48 44 C-47.773125 43.4225 -47.54625 42.845 -47.3125 42.25 C-45.61949517 39.347706 -43.81853141 37.81191305 -41 36 C-37.89594204 36.18259164 -36.65835987 37.22776009 -34 39 C-34 39.66 -34 40.32 -34 41 C-26.37146031 43.30295538 -18.93643959 44.31214653 -11.25 41.75 C-10.1775 41.1725 -9.105 40.595 -8 40 C-7.38125 39.69835937 -6.7625 39.39671875 -6.125 39.0859375 C-2.03225688 36.98840665 -0.12331092 35.02311543 2 31 C2.66 31 3.32 31 4 31 C5.06309567 25.82682579 5.11693938 20.87630664 5.0625 15.625 C5.05798828 14.79355469 5.05347656 13.96210937 5.04882812 13.10546875 C5.03713164 11.07028103 5.01919935 9.03513077 5 7 C4.34 7 3.68 7 3 7 C0 2.61538462 0 2.61538462 0 0 Z " fill="#4FAA30" transform="translate(89,27)"/>
<path d="M0 0 C2.31 0 4.62 0 7 0 C7.12375 1.216875 7.2475 2.43375 7.375 3.6875 C7.79415578 7.08864974 8.63544413 9.84446454 10 13 C10.36871088 14.65919896 10.71281674 16.3247643 11 18 C13.08351615 14.41272872 13.80141379 10.79305958 14.625 6.75 C14.88539063 5.48671875 15.14578125 4.2234375 15.4140625 2.921875 C15.60742188 1.95765625 15.80078125 0.9934375 16 0 C18.31 0 20.62 0 23 0 C23.67099984 2.60311992 24.33695338 5.20735398 25 7.8125 C25.28617188 8.91948242 25.28617188 8.91948242 25.578125 10.04882812 C26.35262914 13.10535341 27 15.83373478 27 19 C27.66 19 28.32 19 29 19 C29.2165625 17.081875 29.2165625 17.081875 29.4375 15.125 C29.70642746 12.74307106 29.92226346 11.15547309 31 9 C31.22467831 7.46331135 31.40796805 5.92031946 31.5625 4.375 C31.64628906 3.55773437 31.73007813 2.74046875 31.81640625 1.8984375 C31.90728516 0.95871094 31.90728516 0.95871094 32 0 C34.31 0 36.62 0 39 0 C39.23341328 6.30215855 38.39477733 11.86486456 37 18 C36.71382812 19.30517578 36.71382812 19.30517578 36.421875 20.63671875 C35.95533903 22.7594574 35.47871537 24.87997481 35 27 C34.34 27 33.68 27 33 27 C32.67 28.98 32.34 30.96 32 33 C29.69 33 27.38 33 25 33 C22.83803396 27.83008122 21.61379721 23.37723273 21.2109375 17.78515625 C21.18418768 15.97777247 21.18418768 15.97777247 20 15 C18.30864753 18.38270494 18.65296598 22.22006273 18.4765625 25.95703125 C17.94381973 29.35872482 17.16216235 31.32303709 15 34 C12.20034321 34.66913403 9.91199859 34.23868841 7 34 C5.35581272 28.64566837 4.26790617 23.33849583 3.375 17.8125 C3.2409375 17.01908203 3.106875 16.22566406 2.96875 15.40820312 C2.38128548 11.83845696 2 8.64269822 2 5 C1.34 5 0.68 5 0 5 C0 3.35 0 1.7 0 0 Z " fill="#ED952C" transform="translate(132,26)"/>
<path d="M0 0 C-0.55429687 0.38671875 -1.10859375 0.7734375 -1.6796875 1.171875 C-2.76636719 1.95304687 -2.76636719 1.95304687 -3.875 2.75 C-4.59429687 3.26046875 -5.31359375 3.7709375 -6.0546875 4.296875 C-9.08743255 6.95204938 -9.91245188 8.89451946 -10.23046875 12.91015625 C-10.21628906 13.95042969 -10.20210937 14.99070312 -10.1875 16.0625 C-10.18105469 17.10535156 -10.17460938 18.14820313 -10.16796875 19.22265625 C-10.11482965 22.08614608 -10.11482965 22.08614608 -9 25 C-8.34 25.33 -7.68 25.66 -7 26 C-7 23.03 -7 20.06 -7 17 C-4.69 17 -2.38 17 0 17 C0 22.61 0 28.22 0 34 C0.99 34 1.98 34 3 34 C3 26.08 3 18.16 3 10 C4.98 10 6.96 10 9 10 C9 18.25 9 26.5 9 35 C9.99 35 10.98 35 12 35 C11.99214478 33.55379272 11.99214478 33.55379272 11.98413086 32.07836914 C11.96607882 28.51327436 11.95456726 24.94818364 11.94506836 21.38305664 C11.9400286 19.83780234 11.9331968 18.29255284 11.92456055 16.74731445 C11.91247924 14.53074971 11.90676827 12.31424782 11.90234375 10.09765625 C11.89718246 9.4028566 11.89202118 8.70805695 11.88670349 7.99220276 C11.88650723 6.3277067 11.93810871 4.66334501 12 3 C13 2 13 2 15.5 1.875 C18 2 18 2 19 3 C19.15806531 4.92478813 19.251135 6.8549921 19.31640625 8.78515625 C19.35830078 9.95498047 19.40019531 11.12480469 19.44335938 12.33007812 C19.48267578 13.56177734 19.52199219 14.79347656 19.5625 16.0625 C19.60568359 17.29806641 19.64886719 18.53363281 19.69335938 19.80664062 C19.79984198 22.87097335 19.90185424 25.93539073 20 29 C22.475 25.535 22.475 25.535 25 22 C25.495 23.485 25.495 23.485 26 25 C23.01414007 30.49398226 19.0360124 34.98799587 13 37 C10.46742101 37.09599519 7.96907608 37.13937035 5.4375 37.125 C4.75236328 37.12886719 4.06722656 37.13273437 3.36132812 37.13671875 C-1.7466133 37.12669335 -1.7466133 37.12669335 -4 36 C-4 35.34 -4 34.68 -4 34 C-4.804375 33.731875 -5.60875 33.46375 -6.4375 33.1875 C-7.283125 32.795625 -8.12875 32.40375 -9 32 C-9.495 30.515 -9.495 30.515 -10 29 C-10.99 28.67 -11.98 28.34 -13 28 C-15.13425667 21.59723 -15.57546406 13.23316389 -12.578125 7.08203125 C-5.71651495 -1.90550498 -5.71651495 -1.90550498 0 0 Z " fill="#A7CD2C" transform="translate(63,27)"/>
<path d="M0 0 C3.1875 1.9375 3.1875 1.9375 6 4 C7.3191582 4.69429379 8.64649406 5.37530495 10 6 C10 6.33 10 6.66 10 7 C9.38253906 7.01417969 8.76507813 7.02835938 8.12890625 7.04296875 C-0.33699277 7.51973932 -6.65407939 10.12194868 -12.4375 16.4375 C-17.22326388 22.0958818 -17.27099576 28.33351219 -17.125 35.375 C-17.11597656 36.20644531 -17.10695313 37.03789063 -17.09765625 37.89453125 C-17.0742622 39.92981337 -17.03839725 41.96494564 -17 44 C-20.20842889 40.79157111 -20.08232111 37.11727303 -20.25 32.75 C-20.21665948 27.79059833 -18.81666319 23.5740984 -17 19 C-22.31486588 21.30912862 -25.45746784 23.31471553 -29 28 C-35.14754098 33 -35.14754098 33 -37 33 C-37.13536022 30.91846065 -37.23215465 28.83438794 -37.3125 26.75 C-37.37050781 25.58984375 -37.42851563 24.4296875 -37.48828125 23.234375 C-37 20 -37 20 -34.54296875 17.640625 C-33.70378906 17.09921875 -32.86460938 16.5578125 -32 16 C-31.67 15.67 -31.34 15.34 -31 15 C-31.66 14.67 -32.32 14.34 -33 14 C-29.97936113 12.24966419 -26.95845327 10.49979312 -23.9375 8.75 C-23.08994141 8.25886719 -22.24238281 7.76773437 -21.36914062 7.26171875 C-19.69576883 6.29258451 -18.02106306 5.3257496 -16.3449707 4.36132812 C-14.86899756 3.50448 -13.4001715 2.63507883 -11.94213867 1.74804688 C-7.42827746 -0.96781391 -5.1547095 -1.49955185 0 0 Z " fill="#F8C967" transform="translate(62,11)"/>
<path d="M0 0 C3.96930989 -0.02465881 7.93859034 -0.04284023 11.90795898 -0.05493164 C13.25920386 -0.05997057 14.61044326 -0.06680177 15.96166992 -0.07543945 C17.90020434 -0.08752419 19.838778 -0.09269828 21.77734375 -0.09765625 C23.52905884 -0.10551147 23.52905884 -0.10551147 25.31616211 -0.11352539 C28 0 28 0 29 1 C29 2.65 29 4.3 29 6 C25.7 6.33 22.4 6.66 19 7 C18.67 15.58 18.34 24.16 18 33 C15.36 33 12.72 33 10 33 C10 24.09 10 15.18 10 6 C7.03 6 4.06 6 1 6 C0 5 0 5 -0.0625 2.4375 C-0.041875 1.633125 -0.02125 0.82875 0 0 Z " fill="#E49332" transform="translate(100,26)"/>
<path d="M0 0 C4.29 0 8.58 0 13 0 C13.495 2.475 13.495 2.475 14 5 C13.34 5 12.68 5 12 5 C12 4.34 12 3.68 12 3 C11.01 3.33 10.02 3.66 9 4 C9 5.32 9 6.64 9 8 C10.65 8 12.3 8 14 8 C13.67 9.32 13.34 10.64 13 12 C10.6875 12.25 10.6875 12.25 8 12 C6.1875 10.25 6.1875 10.25 5 8 C5 6.68 5 5.36 5 4 C4.34 4 3.68 4 3 4 C3 6.64 3 9.28 3 12 C-6.66666667 12 -16.33333333 12 -26 12 C-26.33 10.68 -26.66 9.36 -27 8 C-25.68 8 -24.36 8 -23 8 C-23.99 7.67 -24.98 7.34 -26 7 C-26.38218767 5.34385343 -26.71395102 3.67542976 -27 2 C-26 1 -26 1 -22.5625 0.9375 C-21.386875 0.958125 -20.21125 0.97875 -19 1 C-17.27079362 1 -15.54160121 0.98391472 -13.8125 0.96484375 C-11.9253125 0.95130859 -11.9253125 0.95130859 -10 0.9375 C-8.741875 0.92589844 -7.48375 0.91429688 -6.1875 0.90234375 C-3 1 -3 1 -1 2 C-0.67 1.34 -0.34 0.68 0 0 Z " fill="#6CAB74" transform="translate(153,67)"/>
<path d="M0 0 C1.32 0 2.64 0 4 0 C4.33 1.65 4.66 3.3 5 5 C5.33 4.67 5.66 4.34 6 4 C9.72224599 3.70613847 10.77786243 3.85190829 14 6 C14 5.34 14 4.68 14 4 C16.31 4 18.62 4 21 4 C21 3.01 21 2.02 21 1 C21.66 1 22.32 1 23 1 C23 1.99 23 2.98 23 4 C23.66 4 24.32 4 25 4 C25 4.66 25 5.32 25 6 C24.34 6 23.68 6 23 6 C23.495 9.96 23.495 9.96 24 14 C23.01 13.67 22.02 13.34 21 13 C21 10.69 21 8.38 21 6 C19.68 6 18.36 6 17 6 C17 8.97 17 11.94 17 15 C15.20841511 15.02696365 13.41671527 15.04637917 11.625 15.0625 C10.62726563 15.07410156 9.62953125 15.08570312 8.6015625 15.09765625 C6 15 6 15 4 14 C1.6599583 14.28241883 -0.67504723 14.61250787 -3 15 C-3 13.68 -3 12.36 -3 11 C-4.98 11 -6.96 11 -9 11 C-9 11.99 -9 12.98 -9 14 C-9.66 14 -10.32 14 -11 14 C-10.68991116 12.39536551 -10.37683713 10.79130769 -10.0625 9.1875 C-9.88847656 8.29417969 -9.71445313 7.40085937 -9.53515625 6.48046875 C-9 4 -9 4 -8 1 C-6.1875 1.125 -6.1875 1.125 -4 2 C-2.25 5.0625 -2.25 5.0625 -1 8 C-0.67 5.36 -0.34 2.72 0 0 Z " fill="#76B67F" transform="translate(193,64)"/>
<path d="M0 0 C0.495 0.99 0.495 0.99 1 2 C-1.22890189 3.36610116 -3.4552708 4.71563696 -5.7734375 5.92578125 C-16.76351525 11.71557317 -27.61012987 18.79160596 -36 28 C-36.33 28 -36.66 28 -37 28 C-37.4389288 22.73285434 -37.4389288 22.73285434 -37 20 C-34.5625 17.5625 -34.5625 17.5625 -32 16 C-31.67 15.67 -31.34 15.34 -31 15 C-31.66 14.67 -32.32 14.34 -33 14 C-29.97936113 12.24966419 -26.95845327 10.49979312 -23.9375 8.75 C-23.08994141 8.25886719 -22.24238281 7.76773437 -21.36914062 7.26171875 C-19.69553427 6.29244866 -18.02042292 5.32577214 -16.34375 4.36181641 C-14.87040826 3.50574346 -13.40537984 2.63502918 -11.953125 1.74365234 C-7.51149658 -0.94949922 -5.08891149 -1.42489522 0 0 Z " fill="#FAD17B" transform="translate(62,11)"/>
<path d="M0 0 C4.2098069 1.79906278 5.89942775 3.89336353 8.015625 7.890625 C9.33173451 12.0478598 9.48079822 15.91039799 9.5 20.25 C9.50612305 21.03052734 9.51224609 21.81105469 9.51855469 22.61523438 C9.40898391 27.62111506 8.70032575 31.29967425 5 35 C4.896875 36.134375 4.79375 37.26875 4.6875 38.4375 C4.460625 39.613125 4.23375 40.78875 4 42 C2 43.25 2 43.25 0 44 C-0.33 44.99 -0.66 45.98 -1 47 C-2.65204456 47.70211894 -4.31923769 48.36971413 -6 49 C-6.33 49.66 -6.66 50.32 -7 51 C-8.32 50.67 -9.64 50.34 -11 50 C-9.01388388 48.01388388 -7.55856751 47.08545288 -5 46 C-4.01 46 -3.02 46 -2 46 C-1.67 44.68 -1.34 43.36 -1 42 C-0.34 42 0.32 42 1 42 C1 41.34 1 40.68 1 40 C1.66 40 2.32 40 3 40 C2.67 39.34 2.34 38.68 2 38 C1.34 38.66 0.68 39.32 0 40 C-2.04788482 40.8375807 -4.1236602 41.52034987 -6.22265625 42.21875 C-8.19646447 42.86054904 -8.19646447 42.86054904 -9 45 C-13.95 45 -18.9 45 -24 45 C-24 44.67 -24 44.34 -24 44 C-23.17757812 43.92523438 -22.35515625 43.85046875 -21.5078125 43.7734375 C-13.64521015 42.84735732 -7.12616406 41.23917119 -1 36 C0.01303109 34.3412216 1.01552494 32.67588384 2 31 C2.66 31 3.32 31 4 31 C5.06309567 25.82682579 5.11693938 20.87630664 5.0625 15.625 C5.05798828 14.79355469 5.05347656 13.96210937 5.04882812 13.10546875 C5.03713164 11.07028103 5.01919935 9.03513077 5 7 C4.34 7 3.68 7 3 7 C0 2.61538462 0 2.61538462 0 0 Z " fill="#88C23B" transform="translate(89,27)"/>
<path d="M0 0 C5.37305699 -0.35233161 5.37305699 -0.35233161 8 0 C10 2 10 2 11 4 C11.33 3.67 11.66 3.34 12 3 C14.4375 2.8125 14.4375 2.8125 17 3 C19 5 19 5 19 9 C17.35 9 15.7 9 14 9 C14 9.66 14 10.32 14 11 C15.32 10.67 16.64 10.34 18 10 C18 10.99 18 11.98 18 13 C13.48780488 13.36585366 13.48780488 13.36585366 11.25 11.6875 C10 10 10 10 9 7 C9.33 8.98 9.66 10.96 10 13 C9.01 13 8.02 13 7 13 C6.67 12.01 6.34 11.02 6 10 C5.01 9.67 4.02 9.34 3 9 C3 10.32 3 11.64 3 13 C2.01 13 1.02 13 0 13 C0 8.71 0 4.42 0 0 Z " fill="#78BD81" transform="translate(106,65)"/>
<path d="M0 0 C0.33 0.66 0.66 1.32 1 2 C1.66 2 2.32 2 3 2 C3 2.66 3 3.32 3 4 C1.00715862 5.3440093 -0.99419671 6.67541292 -3 8 C-4.66948436 9.66384421 -6.33575405 11.33091613 -8 13 C-10.06597003 14.81785513 -12.18487852 16.56748846 -14.3125 18.3125 C-14.86228516 18.76689453 -15.41207031 19.22128906 -15.97851562 19.68945312 C-17.31712216 20.79525852 -18.65829231 21.89795939 -20 23 C-18.68 23.66 -17.36 24.32 -16 25 C-21.625 25.25 -21.625 25.25 -25 23 C-25.6875 19.375 -25.6875 19.375 -26 16 C-25.34 16.66 -24.68 17.32 -24 18 C-23.40574219 17.57589844 -22.81148437 17.15179688 -22.19921875 16.71484375 C-7.19475655 6.09737828 -7.19475655 6.09737828 -1 3 C-0.67 2.01 -0.34 1.02 0 0 Z " fill="#F0EDE1" transform="translate(47,59)"/>
<path d="M0 0 C-1.155 0.5775 -2.31 1.155 -3.5 1.75 C-5.53103329 3.01862158 -5.53103329 3.01862158 -7 5 C-7.62833057 9.06038831 -7.40964957 12.92301142 -7 17 C-2.30034727 13.68058509 1.44771756 10.56722028 5 6 C7.68408288 4.29194726 8.76169533 4 12 4 C10.64917887 8.05246339 8.53672022 8.65879084 5 11 C2.81728107 12.98893871 0.78575468 15.11194609 -1.25 17.25 C-3.12938739 19.22106483 -5.02561035 21.12019189 -7 23 C-7.66 23 -8.32 23 -9 23 C-9 29.93 -9 36.86 -9 44 C-9.33 44 -9.66 44 -10 44 C-10.09880115 38.21595259 -10.1714363 32.43239516 -10.21972656 26.64770508 C-10.23985481 24.6795191 -10.26716019 22.71139301 -10.30175781 20.7434082 C-10.35022311 17.9160282 -10.37295618 15.08943799 -10.390625 12.26171875 C-10.41127014 11.38037766 -10.43191528 10.49903656 -10.45318604 9.59098816 C-10.45543248 3.48923135 -10.45543248 3.48923135 -8.10839844 0.96801758 C-2.87214777 -1.43607389 -2.87214777 -1.43607389 0 0 Z " fill="#F3AC38" transform="translate(33,26)"/>
<path d="M0 0 C-0.55429687 0.38671875 -1.10859375 0.7734375 -1.6796875 1.171875 C-2.76636719 1.95304687 -2.76636719 1.95304687 -3.875 2.75 C-4.59429687 3.26046875 -5.31359375 3.7709375 -6.0546875 4.296875 C-9.08743255 6.95204938 -9.91245188 8.89451946 -10.23046875 12.91015625 C-10.21628906 13.95042969 -10.20210937 14.99070312 -10.1875 16.0625 C-10.18105469 17.10535156 -10.17460938 18.14820313 -10.16796875 19.22265625 C-10.11482965 22.08614608 -10.11482965 22.08614608 -9 25 C-8.34 25.33 -7.68 25.66 -7 26 C-7 23.03 -7 20.06 -7 17 C-4.69 17 -2.38 17 0 17 C0 22.28 0 27.56 0 33 C-0.33 33 -0.66 33 -1 33 C-1 28.05 -1 23.1 -1 18 C-2.65 18 -4.3 18 -6 18 C-5.98839844 18.84304687 -5.97679687 19.68609375 -5.96484375 20.5546875 C-5.95130859 22.19824219 -5.95130859 22.19824219 -5.9375 23.875 C-5.92589844 24.96554688 -5.91429687 26.05609375 -5.90234375 27.1796875 C-6 30 -6 30 -7 32 C-7.99 31.67 -8.98 31.34 -10 31 C-10 30.34 -10 29.68 -10 29 C-10.99 28.67 -11.98 28.34 -13 28 C-15.13425667 21.59723 -15.57546406 13.23316389 -12.578125 7.08203125 C-5.71651495 -1.90550498 -5.71651495 -1.90550498 0 0 Z " fill="#B9D860" transform="translate(63,27)"/>
<path d="M0 0 C4.29 0 8.58 0 13 0 C13.33 1.65 13.66 3.3 14 5 C13.34 5 12.68 5 12 5 C12 4.34 12 3.68 12 3 C11.01 3.33 10.02 3.66 9 4 C9 5.32 9 6.64 9 8 C10.65 8 12.3 8 14 8 C13.67 9.32 13.34 10.64 13 12 C10.6875 12.25 10.6875 12.25 8 12 C6.1875 10.25 6.1875 10.25 5 8 C5 6.68 5 5.36 5 4 C4.34 4 3.68 4 3 4 C3 6.64 3 9.28 3 12 C-0.3 12 -3.6 12 -7 12 C-7 11.67 -7 11.34 -7 11 C-5.02 11 -3.04 11 -1 11 C-1.020625 9.741875 -1.04125 8.48375 -1.0625 7.1875 C-1.10886083 4.35948913 -0.91692961 2.75078884 0 0 Z " fill="#BBD5BF" transform="translate(153,67)"/>
<path d="M0 0 C0.66 0 1.32 0 2 0 C2 10.56 2 21.12 2 32 C3.65 32 5.3 32 7 32 C6.67 24.74 6.34 17.48 6 10 C8.8290723 12.8290723 9.37611108 13.38144425 10 17 C9.67 17 9.34 17 9 17 C8.67 22.61 8.34 28.22 8 34 C5.69 34 3.38 34 1 34 C0 33 0 33 -0.11352539 29.85717773 C-0.11336633 28.46597303 -0.10767506 27.07476239 -0.09765625 25.68359375 C-0.0962413 24.95253922 -0.09482635 24.22148468 -0.09336853 23.46827698 C-0.08775408 21.12464368 -0.07519922 18.78110461 -0.0625 16.4375 C-0.05748686 14.85221492 -0.05292363 13.26692834 -0.04882812 11.68164062 C-0.03777997 7.7877239 -0.02050572 3.89387795 0 0 Z " fill="#EE9E3E" transform="translate(177,26)"/>
<path d="M0 0 C4.41661151 -0.05804281 8.83312496 -0.09361104 13.25 -0.125 C14.50425781 -0.14175781 15.75851563 -0.15851562 17.05078125 -0.17578125 C18.25605469 -0.18222656 19.46132812 -0.18867188 20.703125 -0.1953125 C21.81333008 -0.20578613 22.92353516 -0.21625977 24.06738281 -0.22705078 C26.93950942 -0.00468334 28.57223735 0.50718425 31 2 C31 3.65 31 5.3 31 7 C31.66 7 32.32 7 33 7 C33.53107314 9.74837849 34.05015881 12.49812375 34.5625 15.25 C34.78969727 16.41595703 34.78969727 16.41595703 35.02148438 17.60546875 C35.16005859 18.35957031 35.29863281 19.11367188 35.44140625 19.890625 C35.57232666 20.58188477 35.70324707 21.27314453 35.83813477 21.98535156 C36.01710362 24.21287942 35.65206197 25.87506962 35 28 C34.80664062 27.14277344 34.61328125 26.28554688 34.4140625 25.40234375 C33.08207507 19.55346826 31.73619915 13.74281257 30 8 C29.34 8 28.68 8 28 8 C27.67 6.35 27.34 4.7 27 3 C13.14 2.505 13.14 2.505 -1 2 C-0.67 1.34 -0.34 0.68 0 0 Z " fill="#E7D8C7" transform="translate(101,24)"/>
<path d="M0 0 C2 3 2 3 1.890625 5.515625 C0.75462639 8.68446323 -0.29866224 9.20768801 -3.25 10.75 C-7.7343273 13.23262758 -11.93464242 15.93460049 -16.125 18.875 C-16.70540039 19.28073242 -17.28580078 19.68646484 -17.88378906 20.10449219 C-19.25773108 21.06699517 -20.62914941 22.03309911 -22 23 C-22.33 21.68 -22.66 20.36 -23 19 C-22.34 18.67 -21.68 18.34 -21 18 C-21 17.01 -21 16.02 -21 15 C-20.030625 14.608125 -19.06125 14.21625 -18.0625 13.8125 C-14.24490582 12.18634426 -10.69510997 10.18669062 -7.08984375 8.140625 C-4.7919275 6.88643519 -2.46701712 5.87539317 0 5 C0 3.35 0 1.7 0 0 Z " fill="#EFB281" transform="translate(45,55)"/>
<path d="M0 0 C0.495 1.485 0.495 1.485 1 3 C0.34 3 -0.32 3 -1 3 C-1 3.66 -1 4.32 -1 5 C-1.66 5.33 -2.32 5.66 -3 6 C-3.33 6.99 -3.66 7.98 -4 9 C-11.44156382 13.01844447 -20.82164925 12.71969487 -29 12 C-31.94921875 10.98046875 -31.94921875 10.98046875 -34 10 C-34 9.34 -34 8.68 -34 8 C-33.36707031 8.16371094 -32.73414063 8.32742187 -32.08203125 8.49609375 C-27.93248907 9.17453601 -23.88358502 9.10555375 -19.6875 9.0625 C-18.85154297 9.05798828 -18.01558594 9.05347656 -17.15429688 9.04882812 C-15.10283351 9.03710548 -13.05140727 9.01917203 -11 9 C-10.87689453 8.36537842 -10.75378906 7.73075684 -10.62695312 7.0769043 C-10 5 -10 5 -7.96875 3.76953125 C-7.1540625 3.45371094 -6.339375 3.13789062 -5.5 2.8125 C-2.51334853 1.77675178 -2.51334853 1.77675178 0 0 Z " fill="#2F9D33" transform="translate(91,64)"/>
<path d="M0 0 C1.25425781 0.00902344 2.50851563 0.01804687 3.80078125 0.02734375 C4.75339844 0.03894531 5.70601562 0.05054687 6.6875 0.0625 C6.6875 0.7225 6.6875 1.3825 6.6875 2.0625 C7.3475 2.3925 8.0075 2.7225 8.6875 3.0625 C8.048125 3.165625 7.40875 3.26875 6.75 3.375 C6.069375 3.601875 5.38875 3.82875 4.6875 4.0625 C4.3575 5.0525 4.0275 6.0425 3.6875 7.0625 C1.0475 7.0625 -1.5925 7.0625 -4.3125 7.0625 C-4.3125 6.4025 -4.3125 5.7425 -4.3125 5.0625 C-5.26125 4.77375 -6.21 4.485 -7.1875 4.1875 C-10.3125 3.0625 -10.3125 3.0625 -12.3125 1.0625 C-8.15623632 0.05323521 -4.26884906 -0.03989579 0 0 Z " fill="#62B561" transform="translate(58.3125,81.9375)"/>
<path d="M0 0 C0.99 0 1.98 0 3 0 C3 0.99 3 1.98 3 3 C3.804375 3.12375 4.60875 3.2475 5.4375 3.375 C6.7059375 3.684375 6.7059375 3.684375 8 4 C9.20272819 6.40545638 9.10071472 7.94996953 9.0625 10.625 C9.05347656 11.44226563 9.04445312 12.25953125 9.03515625 13.1015625 C9.02355469 13.72804688 9.01195312 14.35453125 9 15 C8.01 15 7.02 15 6 15 C6 12.36 6 9.72 6 7 C5.01 7 4.02 7 3 7 C3 9.31 3 11.62 3 14 C2.01 14 1.02 14 0 14 C0 9.38 0 4.76 0 0 Z " fill="#79BF82" transform="translate(168,64)"/>
<path d="M0 0 C1.65 0 3.3 0 5 0 C5 5.61 5 11.22 5 17 C3.35 16.67 1.7 16.34 0 16 C-1.16306443 12.45049966 -0.92365049 9.44176052 -0.5625 5.75 C-0.46066406 4.67234375 -0.35882813 3.5946875 -0.25390625 2.484375 C-0.17011719 1.66453125 -0.08632813 0.8446875 0 0 Z " fill="#96C61E" transform="translate(57,45)"/>
<path d="M0 0 C0.33 0 0.66 0 1 0 C1 6.27 1 12.54 1 19 C0.67 19 0.34 19 0 19 C0 15.04 0 11.08 0 7 C-0.66 7 -1.32 7 -2 7 C-2.10957031 7.75925781 -2.21914062 8.51851562 -2.33203125 9.30078125 C-2.49058594 10.29464844 -2.64914063 11.28851563 -2.8125 12.3125 C-2.96332031 13.29863281 -3.11414063 14.28476562 -3.26953125 15.30078125 C-4.04400896 18.16262134 -4.60456662 19.29555702 -7 21 C-10.1875 21.1875 -10.1875 21.1875 -13 21 C-13.99 18.03 -14.98 15.06 -16 12 C-15.01 12.495 -15.01 12.495 -14 13 C-13.731875 13.825 -13.46375 14.65 -13.1875 15.5 C-12.795625 16.325 -12.40375 17.15 -12 18 C-9.45224694 18.89386164 -9.45224694 18.89386164 -7 19 C-6.9175 18.030625 -6.835 17.06125 -6.75 16.0625 C-5.92359468 10.18184763 -3.26603571 4.89905357 0 0 Z " fill="#D6C0A6" transform="translate(205,40)"/>
<path d="M0 0 C1.37478516 0.01740234 1.37478516 0.01740234 2.77734375 0.03515625 C3.69644531 0.04417969 4.61554688 0.05320312 5.5625 0.0625 C6.27277344 0.07410156 6.98304688 0.08570312 7.71484375 0.09765625 C7.71484375 0.75765625 7.71484375 1.41765625 7.71484375 2.09765625 C4.74484375 2.09765625 1.77484375 2.09765625 -1.28515625 2.09765625 C-1.28515625 10.67765625 -1.28515625 19.25765625 -1.28515625 28.09765625 C-4.25515625 28.09765625 -7.22515625 28.09765625 -10.28515625 28.09765625 C-10.28515625 27.76765625 -10.28515625 27.43765625 -10.28515625 27.09765625 C-7.97515625 27.09765625 -5.66515625 27.09765625 -3.28515625 27.09765625 C-3.29039307 26.31527588 -3.29562988 25.53289551 -3.30102539 24.72680664 C-3.32172731 21.20459792 -3.33479463 17.68240195 -3.34765625 14.16015625 C-3.35603516 12.92845703 -3.36441406 11.69675781 -3.37304688 10.42773438 C-3.37626953 9.25791016 -3.37949219 8.08808594 -3.3828125 6.8828125 C-3.38804932 5.7987915 -3.39328613 4.71477051 -3.39868164 3.59790039 C-3.25196034 0.36656101 -3.22081163 0.13764152 0 0 Z " fill="#D5D4D3" transform="translate(121.28515625,31.90234375)"/>
<path d="M0 0 C4.20919844 1.79880275 5.89628259 3.89501128 8.01953125 7.88671875 C10.1905646 14.78039834 10.71563163 24.75332246 7.97265625 31.54296875 C7.49119141 32.26419922 7.49119141 32.26419922 7 33 C5.68374806 30.36749612 6.25186342 29.19820944 6.9375 26.375 C7.13214844 25.55773437 7.32679687 24.74046875 7.52734375 23.8984375 C7.68332031 23.27195312 7.83929688 22.64546875 8 22 C7.34 22 6.68 22 6 22 C5.67 17.05 5.34 12.1 5 7 C4.34 7 3.68 7 3 7 C0 2.61538462 0 2.61538462 0 0 Z " fill="#C5DE7C" transform="translate(89,27)"/>
<path d="M0 0 C-0.55429687 0.38671875 -1.10859375 0.7734375 -1.6796875 1.171875 C-2.76636719 1.95304687 -2.76636719 1.95304687 -3.875 2.75 C-4.59429687 3.26046875 -5.31359375 3.7709375 -6.0546875 4.296875 C-8.2168659 6.18986653 -9.09279699 7.27839097 -10 10 C-10.24172707 13.50869414 -10.24172707 13.50869414 -10.125 17.25 C-10.10695312 18.51328125 -10.08890625 19.7765625 -10.0703125 21.078125 C-10.04710937 22.04234375 -10.02390625 23.0065625 -10 24 C-10.66 24 -11.32 24 -12 24 C-11.67 25.65 -11.34 27.3 -11 29 C-13 28 -13 28 -14 25 C-14.77847663 17.62216466 -15.45531 10.85065178 -10.75 4.6875 C-7.48564449 1.02556273 -4.94485356 -1.64828452 0 0 Z " fill="#CFE267" transform="translate(63,27)"/>
<path d="M0 0 C-1.79036458 1.00911458 -3.58072917 2.01822917 -5.37109375 3.02734375 C-10.35108402 9.05826722 -8.34074242 21.90235945 -8.5625 29.5625 C-8.60579176 30.96680703 -8.64940904 32.37110406 -8.69335938 33.77539062 C-8.79876511 37.18350951 -8.90088982 40.5916932 -9 44 C-9.33 44 -9.66 44 -10 44 C-10.09880115 38.21595259 -10.1714363 32.43239516 -10.21972656 26.64770508 C-10.23985481 24.6795191 -10.26716019 22.71139301 -10.30175781 20.7434082 C-10.35022311 17.9160282 -10.37295618 15.08943799 -10.390625 12.26171875 C-10.41127014 11.38037766 -10.43191528 10.49903656 -10.45318604 9.59098816 C-10.45543248 3.48923135 -10.45543248 3.48923135 -8.10839844 0.96801758 C-2.87214777 -1.43607389 -2.87214777 -1.43607389 0 0 Z " fill="#F3B454" transform="translate(33,26)"/>
<path d="M0 0 C3.3 0.33 6.6 0.66 10 1 C10 9.91 10 18.82 10 28 C9.34 28 8.68 28 8 28 C8 19.75 8 11.5 8 3 C5.69 3 3.38 3 1 3 C0.67 2.01 0.34 1.02 0 0 Z " fill="#EFE4D9" transform="translate(100,31)"/>
<path d="M0 0 C1.32 0.33 2.64 0.66 4 1 C4.66 4.3 5.32 7.6 6 11 C3.69 10.67 1.38 10.34 -1 10 C-1 10.99 -1 11.98 -1 13 C-1.66 13 -2.32 13 -3 13 C-2.68991116 11.39536551 -2.37683713 9.79130769 -2.0625 8.1875 C-1.88847656 7.29417969 -1.71445313 6.40085937 -1.53515625 5.48046875 C-1 3 -1 3 0 0 Z " fill="#58A763" transform="translate(185,65)"/>
<path d="M0 0 C2.31 0.33 4.62 0.66 7 1 C7 3.97 7 6.94 7 10 C4.69 10 2.38 10 0 10 C0 6.66666667 0 3.33333333 0 0 Z " fill="#5AAC65" transform="translate(145,68)"/>
<path d="M0 0 C3 2 3 2 3.44140625 3.953125 C3.48136719 4.71109375 3.52132812 5.4690625 3.5625 6.25 C3.86091593 10.11075608 4.66345825 13.34678589 6 17 C6 17.66 6 18.32 6 19 C8.31 19 10.62 19 13 19 C13.33 17.02 13.66 15.04 14 13 C14.33 13 14.66 13 15 13 C15 15.31 15 17.62 15 20 C11.78548731 21.60725635 8.56387464 21.05748185 5 21 C2.70657253 15.10261508 1.65451286 10.33393082 2 4 C1.34 4 0.68 4 0 4 C-0.33 4.99 -0.66 5.98 -1 7 C-0.67 4.69 -0.34 2.38 0 0 Z " fill="#D0C0AC" transform="translate(151,40)"/>
<path d="M0 0 C1.2065625 0.0309375 1.2065625 0.0309375 2.4375 0.0625 C1.4475 0.7225 0.4575 1.3825 -0.5625 2.0625 C-1.05569433 4.47807136 -1.05569433 4.47807136 -1.0390625 7.296875 C-1.07 8.34617187 -1.1009375 9.39546875 -1.1328125 10.4765625 C-1.15085937 11.57742187 -1.16890625 12.67828125 -1.1875 13.8125 C-1.238843 15.97404036 -1.29343278 18.1355065 -1.3515625 20.296875 C-1.37790771 21.73885254 -1.37790771 21.73885254 -1.40478516 23.20996094 C-1.57118745 26.21962717 -2.01617856 29.10019937 -2.5625 32.0625 C-2.8925 32.0625 -3.2225 32.0625 -3.5625 32.0625 C-3.58715504 27.66593827 -3.60533842 23.2694128 -3.61743164 18.87280273 C-3.62247121 17.37605082 -3.62930287 15.87930384 -3.63793945 14.38256836 C-3.65002159 12.23550193 -3.65573191 10.08850038 -3.66015625 7.94140625 C-3.66539307 6.6479126 -3.67062988 5.35441895 -3.67602539 4.02172852 C-3.52503746 0.08597652 -3.52503746 0.08597652 0 0 Z " fill="#CADF66" transform="translate(78.5625,28.9375)"/>
<path d="M0 0 C2.375 -0.125 2.375 -0.125 5 0 C7 2 7 2 7 6 C5.35 6 3.7 6 2 6 C2 6.66 2 7.32 2 8 C3.32 7.67 4.64 7.34 6 7 C6 7.99 6 8.98 6 10 C3.625 10.125 3.625 10.125 1 10 C0.34 9.34 -0.32 8.68 -1 8 C-0.96712417 5.27130593 -0.43602229 2.7033382 0 0 Z " fill="#6CAC75" transform="translate(118,68)"/>
<path d="M0 0 C0.66 0 1.32 0 2 0 C1.49386186 4.38653055 -0.85151009 7.05684638 -4 10 C-7.8125 9.875 -7.8125 9.875 -11 9 C-10.67 8.01 -10.34 7.02 -10 6 C-7.68020619 4.96898053 -5.34570085 3.97063483 -3 3 C-1.24850835 1.41754725 -1.24850835 1.41754725 0 0 Z " fill="#3FA431" transform="translate(46,68)"/>
<path d="M0 0 C2 1 2 1 2.6328125 2.84765625 C2.87644531 3.94400391 2.87644531 3.94400391 3.125 5.0625 C3.29257813 5.79597656 3.46015625 6.52945313 3.6328125 7.28515625 C3.75398437 7.85105469 3.87515625 8.41695312 4 9 C3.67 9 3.34 9 3 9 C2.95101562 9.62648438 2.90203125 10.25296875 2.8515625 10.8984375 C2.77679688 11.71570312 2.70203125 12.53296875 2.625 13.375 C2.55539063 14.18710937 2.48578125 14.99921875 2.4140625 15.8359375 C2 18 2 18 0 20 C-5.33333333 20.33333333 -5.33333333 20.33333333 -8 19 C-7.67 18.34 -7.34 17.68 -7 17 C-4.69 17.33 -2.38 17.66 0 18 C0 12.06 0 6.12 0 0 Z " fill="#D9D6D3" transform="translate(185,42)"/>
<path d="M0 0 C3.33773709 3.64116773 3.97864902 7.28607242 5 12 C6.61064629 8.34920174 7.44894091 4.9492568 8 1 C8.33 1 8.66 1 9 1 C9.36517527 7.57315478 8.13619737 12.79485526 6 19 C5.34 19 4.68 19 4 19 C3.32713788 16.58490559 2.66153988 14.16819644 2 11.75 C1.71382812 10.72712891 1.71382812 10.72712891 1.421875 9.68359375 C0.50042956 6.29399088 0 3.54221024 0 0 Z " fill="#D9C7B2" transform="translate(155,26)"/>
<path d="M0 0 C1.2065625 0.0309375 1.2065625 0.0309375 2.4375 0.0625 C2.7675 1.0525 3.0975 2.0425 3.4375 3.0625 C2.1175 2.7325 0.7975 2.4025 -0.5625 2.0625 C0.118125 2.619375 0.79875 3.17625 1.5 3.75 C2.4590625 4.8946875 2.4590625 4.8946875 3.4375 6.0625 C3.1875 8.8125 3.1875 8.8125 2.4375 11.0625 C0.7875 11.0625 -0.8625 11.0625 -2.5625 11.0625 C-2.8925 9.7425 -3.2225 8.4225 -3.5625 7.0625 C-2.2425 7.0625 -0.9225 7.0625 0.4375 7.0625 C-0.5525 6.7325 -1.5425 6.4025 -2.5625 6.0625 C-2.94468767 4.40635343 -3.27645102 2.73792976 -3.5625 1.0625 C-2.5625 0.0625 -2.5625 0.0625 0 0 Z " fill="#67AC70" transform="translate(129.5625,67.9375)"/>
<path d="M0 0 C0.66 0 1.32 0 2 0 C2 0.99 2 1.98 2 3 C2.66 3 3.32 3 4 3 C4 3.66 4 4.32 4 5 C3.34 5 2.68 5 2 5 C2.33 7.64 2.66 10.28 3 13 C2.01 12.67 1.02 12.34 0 12 C0 9.69 0 7.38 0 5 C-1.32 5.33 -2.64 5.66 -4 6 C-4.33 7.98 -4.66 9.96 -5 12 C-5.33 12 -5.66 12 -6 12 C-6 9.03 -6 6.06 -6 3 C-4.02 3 -2.04 3 0 3 C0 2.01 0 1.02 0 0 Z " fill="#55AD61" transform="translate(214,65)"/>
<path d="M0 0 C0 0.99 0 1.98 0 3 C-0.66 3 -1.32 3 -2 3 C-2 2.34 -2 1.68 -2 1 C-2.99 1.33 -3.98 1.66 -5 2 C-5 3.32 -5 4.64 -5 6 C-3.35 6 -1.7 6 0 6 C-0.33 7.32 -0.66 8.64 -1 10 C-3.375 10.1875 -3.375 10.1875 -6 10 C-8.4294516 6.3558226 -8.16179575 4.28758728 -8 0 C-5.13822943 -1.43088528 -3.06624227 -0.59991697 0 0 Z " fill="#79B581" transform="translate(167,69)"/>
<path d="M0 0 C0 0.66 0 1.32 0 2 C0.66 2 1.32 2 2 2 C1.63302158 4.64789044 1.33134019 5.72983031 -0.77734375 7.44921875 C-1.84662109 8.06216797 -1.84662109 8.06216797 -2.9375 8.6875 C-3.64777344 9.10386719 -4.35804687 9.52023438 -5.08984375 9.94921875 C-6.37937845 10.65859469 -7.68360676 11.34180338 -9 12 C-8.69381595 8.32579134 -8.24228216 7.21864487 -5.4375 4.6875 C-4.633125 4.130625 -3.82875 3.57375 -3 3 C-3.66 2.67 -4.32 2.34 -5 2 C-2 0 -2 0 0 0 Z " fill="#FAD484" transform="translate(34,23)"/>
<path d="M0 0 C1.5 1 1.5 1 3 3 C3.27345479 5.71846235 3.13491285 8.25677199 3 11 C0.5625 10.625 0.5625 10.625 -2 10 C-2.33 9.34 -2.66 8.68 -3 8 C-4.32 8 -5.64 8 -7 8 C-7 7.01 -7 6.02 -7 5 C-5.35 5 -3.7 5 -2 5 C-2 4.01 -2 3.02 -2 2 C-1.34 2 -0.68 2 0 2 C0 1.34 0 0.68 0 0 Z " fill="#A0C1A5" transform="translate(207,68)"/>
<path d="M0 0 C2.64 0 5.28 0 8 0 C8.33 0.66 8.66 1.32 9 2 C8.34 2 7.68 2 7 2 C7 3.32 7 4.64 7 6 C5.68 6 4.36 6 3 6 C3 4.35 3 2.7 3 1 C2.34 1 1.68 1 1 1 C1.66264086 7.06264222 1.66264086 7.06264222 3 13 C2.01 13 1.02 13 0 13 C0 8.71 0 4.42 0 0 Z " fill="#86C88F" transform="translate(106,65)"/>
<path d="M0 0 C0.33 0 0.66 0 1 0 C1.20776602 4.08606506 1.29550012 7.11349964 0 11 C-2.3341308 13.3341308 -2.94575327 13.31802425 -6.125 13.375 C-10 13 -10 13 -11 12 C-11.04080783 10.00041636 -11.04254356 7.99954746 -11 6 C-10.773125 6.639375 -10.54625 7.27875 -10.3125 7.9375 C-9.14749104 10.27193661 -9.14749104 10.27193661 -6.375 10.75 C-5.59125 10.8325 -4.8075 10.915 -4 11 C-4 10.34 -4 9.68 -4 9 C-3.34 8.67 -2.68 8.34 -2 8 C-1.31527335 6.11235097 -1.31527335 6.11235097 -0.875 3.9375 C-0.70742187 3.20402344 -0.53984375 2.47054687 -0.3671875 1.71484375 C-0.24601563 1.14894531 -0.12484375 0.58304688 0 0 Z " fill="#D1AF87" transform="translate(149,47)"/>
<path d="M0 0 C0.33 0.99 0.66 1.98 1 3 C0.34 3 -0.32 3 -1 3 C-1 3.66 -1 4.32 -1 5 C-1.99 5.495 -1.99 5.495 -3 6 C-3.33 6.99 -3.66 7.98 -4 9 C-6.0625 9.6875 -6.0625 9.6875 -8 10 C-8 9.34 -8 8.68 -8 8 C-8.99 8 -9.98 8 -11 8 C-10.5 6.1875 -10.5 6.1875 -9 4 C-6.96304582 3.02598865 -4.92458579 2.30831981 -2.77734375 1.61328125 C-0.99877003 1.14469894 -0.99877003 1.14469894 0 0 Z " fill="#4AA82D" transform="translate(91,64)"/>
<path d="M0 0 C0.66 0.33 1.32 0.66 2 1 C-3.83405626 5.34653016 -9.5733894 9.57247434 -16 13 C-16 11.68 -16 10.36 -16 9 C-13.38029207 7.46935061 -10.75498357 5.95030252 -8.125 4.4375 C-7.37863281 3.99986328 -6.63226563 3.56222656 -5.86328125 3.11132812 C-5.14785156 2.70205078 -4.43242188 2.29277344 -3.6953125 1.87109375 C-3.03547363 1.48880615 -2.37563477 1.10651855 -1.69580078 0.71264648 C-1.13618652 0.47747314 -0.57657227 0.2422998 0 0 Z " fill="#E6884D" transform="translate(38,65)"/>
<path d="M0 0 C1.75 0.875 1.75 0.875 2.75 2.875 C-0.25 3.875 -3.25 4.875 -6.25 5.875 C-6.58 6.865 -6.91 7.855 -7.25 8.875 C-10.3125 10.0625 -10.3125 10.0625 -13.25 10.875 C-12.59 9.885 -11.93 8.895 -11.25 7.875 C-10.59 7.875 -9.93 7.875 -9.25 7.875 C-9.023125 7.2975 -8.79625 6.72 -8.5625 6.125 C-6.58279315 2.73121683 -4.15735057 -0.23096392 0 0 Z " fill="#68B434" transform="translate(50.25,63.125)"/>
<path d="M0 0 C2.78351989 1.39175995 2.88549451 2.92687852 3.9375 5.8125 C5.22811165 9.34992545 6.61004499 12.07894387 9 15 C9.66 13.68 10.32 12.36 11 11 C12 13 12 13 11.0625 16.125 C10.711875 17.07375 10.36125 18.0225 10 19 C9.01 19 8.02 19 7 19 C6.67 17.02 6.34 15.04 6 13 C5.34 13 4.68 13 4 13 C3.32942113 11.2097939 2.6636531 9.41778511 2 7.625 C1.62875 6.62726562 1.2575 5.62953125 0.875 4.6015625 C0 2 0 2 0 0 Z " fill="#D3C3B0" transform="translate(187,27)"/>
<path d="M0 0 C0.33 0 0.66 0 1 0 C2.29243536 4.1196377 3.26252625 7.66831683 3 12 C3.99 12 4.98 12 6 12 C6.33 10.68 6.66 9.36 7 8 C6.88590407 9.45922693 6.75834456 10.91740598 6.625 12.375 C6.55539063 13.18710937 6.48578125 13.99921875 6.4140625 14.8359375 C6 17 6 17 4 19 C3.71125 18.113125 3.4225 17.22625 3.125 16.3125 C2.10874583 13.11219807 2.10874583 13.11219807 0.875 10.625 C-0.34114514 6.97656457 -0.13007354 3.8371694 0 0 Z " fill="#D5C1A8" transform="translate(139,26)"/>
<path d="M0 0 C2.8290723 2.8290723 3.37611108 3.38144425 4 7 C3.67 7 3.34 7 3 7 C2.67 12.61 2.34 18.22 2 24 C-0.31 24 -2.62 24 -5 24 C-5 23.67 -5 23.34 -5 23 C-3.02 23 -1.04 23 1 23 C0.67 15.41 0.34 7.82 0 0 Z " fill="#B29E86" transform="translate(183,36)"/>
<path d="M0 0 C0.33 0.66 0.66 1.32 1 2 C2.97888961 2.72693904 4.97954558 3.39816251 7 4 C5 5 5 5 2 5.4375 C-1.10361588 5.72715994 -1.10361588 5.72715994 -3 8 C-5.625 8.125 -5.625 8.125 -8 8 C-5.33333333 5.33333333 -2.66666667 2.66666667 0 0 Z " fill="#67B75F" transform="translate(34,75)"/>
<path d="M0 0 C0.33 0 0.66 0 1 0 C1 1.98 1 3.96 1 6 C0.360625 6.268125 -0.27875 6.53625 -0.9375 6.8125 C-3.33131686 7.88667752 -3.33131686 7.88667752 -4 11 C-5.65204456 11.70211894 -7.31923769 12.36971413 -9 13 C-9.33 13.66 -9.66 14.32 -10 15 C-11.32 14.67 -12.64 14.34 -14 14 C-12.01388388 12.01388388 -10.55856751 11.08545288 -8 10 C-7.01 10 -6.02 10 -5 10 C-4.67 8.68 -4.34 7.36 -4 6 C-3.34 6 -2.68 6 -2 6 C-2 5.34 -2 4.68 -2 4 C-1.34 4 -0.68 4 0 4 C0 2.68 0 1.36 0 0 Z " fill="#7EC061" transform="translate(92,63)"/>
<path d="M0 0 C-1.16599616 3.49798849 -1.79787112 3.74164064 -4.875 5.5 C-7.64286204 7.09330804 -9.82717282 8.64952029 -12 11 C-12.99 10.67 -13.98 10.34 -15 10 C-5.27777778 0 -5.27777778 0 0 0 Z " fill="#F7B93A" transform="translate(45,30)"/>
<path d="M0 0 C1.32 0.33 2.64 0.66 4 1 C4 3.97 4 6.94 4 10 C2.68 10.33 1.36 10.66 0 11 C0.0928125 9.824375 0.0928125 9.824375 0.1875 8.625 C0.125625 7.75875 0.06375 6.8925 0 6 C-0.99 5.34 -1.98 4.68 -3 4 C-3 3.34 -3 2.68 -3 2 C-1.68 2.33 -0.36 2.66 1 3 C0.67 2.01 0.34 1.02 0 0 Z " fill="#B5D4B9" transform="translate(132,68)"/>
<path d="M0 0 C0.33 0.66 0.66 1.32 1 2 C1.66 2 2.32 2 3 2 C3 2.66 3 3.32 3 4 C1.01399663 5.3540932 -0.98817543 6.68457624 -3 8 C-4.36886951 9.29682374 -5.7169291 10.61823134 -7 12 C-7.33 10.35 -7.66 8.7 -8 7 C-6.20963542 6.05598958 -4.41927083 5.11197917 -2.62890625 4.16796875 C-0.67732013 3.00980201 -0.67732013 3.00980201 0 0 Z " fill="#E9ECD3" transform="translate(47,59)"/>
<path d="M0 0 C1.25425781 0.00902344 2.50851563 0.01804687 3.80078125 0.02734375 C4.75339844 0.03894531 5.70601562 0.05054687 6.6875 0.0625 C6.6875 0.7225 6.6875 1.3825 6.6875 2.0625 C7.3475 2.3925 8.0075 2.7225 8.6875 3.0625 C7.6975 3.3925 6.7075 3.7225 5.6875 4.0625 C5.3575 3.0725 5.0275 2.0825 4.6875 1.0625 C1.3875 1.0625 -1.9125 1.0625 -5.3125 1.0625 C-5.6425 1.7225 -5.9725 2.3825 -6.3125 3.0625 C-7.3025 3.5575 -7.3025 3.5575 -8.3125 4.0625 C-9.6325 3.0725 -10.9525 2.0825 -12.3125 1.0625 C-8.15623632 0.05323521 -4.26884906 -0.03989579 0 0 Z " fill="#62B458" transform="translate(58.3125,81.9375)"/>
<path d="M0 0 C2.31 0.33 4.62 0.66 7 1 C6.01 1.66 5.02 2.32 4 3 C3.27034634 5.56282742 3.27034634 5.56282742 3 8 C2.01 8.33 1.02 8.66 0 9 C-0.33 8.34 -0.66 7.68 -1 7 C-1.99 7 -2.98 7 -4 7 C-4 6.34 -4 5.68 -4 5 C-2.35 5 -0.7 5 1 5 C0.67 3.35 0.34 1.7 0 0 Z " fill="#B6D0BA" transform="translate(142,69)"/>
<path d="M0 0 C2 2 2 2 2.1953125 4.1640625 C2.17210937 4.97617188 2.14890625 5.78828125 2.125 6.625 C2.10695312 7.44226563 2.08890625 8.25953125 2.0703125 9.1015625 C2.03550781 10.04128906 2.03550781 10.04128906 2 11 C1.01 11 0.02 11 -1 11 C-1 8.36 -1 5.72 -1 3 C-1.99 2.67 -2.98 2.34 -4 2 C-2.68 2 -1.36 2 0 2 C0 1.34 0 0.68 0 0 Z " fill="#8AC092" transform="translate(175,68)"/>
<path d="M0 0 C0 0.66 0 1.32 0 2 C-0.639375 2.28875 -1.27875 2.5775 -1.9375 2.875 C-4.15206079 3.82823451 -4.15206079 3.82823451 -5 6 C-9.95 6 -14.9 6 -20 6 C-20 5.67 -20 5.34 -20 5 C-18.67935547 4.83564453 -18.67935547 4.83564453 -17.33203125 4.66796875 C-15.58986328 4.43013672 -15.58986328 4.43013672 -13.8125 4.1875 C-12.66394531 4.03667969 -11.51539062 3.88585937 -10.33203125 3.73046875 C-6.64287725 2.92170932 -3.61429939 0 0 0 Z " fill="#81C155" transform="translate(85,66)"/>
<path d="M0 0 C0.33 0 0.66 0 1 0 C1 2.31 1 4.62 1 7 C1.66 7.33 2.32 7.66 3 8 C-0.42232972 9.14077657 -3.08673217 9.09815117 -6.6875 9.0625 C-8.45673828 9.04896484 -8.45673828 9.04896484 -10.26171875 9.03515625 C-11.16535156 9.02355469 -12.06898437 9.01195313 -13 9 C-13 8.34 -13 7.68 -13 7 C-11.14375 7.0309375 -11.14375 7.0309375 -9.25 7.0625 C-6.3359175 7.06766681 -3.79046673 6.93015558 -1 6 C-0.67 4.02 -0.34 2.04 0 0 Z " fill="#89C23A" transform="translate(76,55)"/>
<path d="M0 0 C0.66 0 1.32 0 2 0 C2 7.92 2 15.84 2 24 C1.67 24 1.34 24 1 24 C0.93941406 22.73542969 0.87882813 21.47085938 0.81640625 20.16796875 C0.73199096 18.50780129 0.64734345 16.84764563 0.5625 15.1875 C0.52318359 14.35412109 0.48386719 13.52074219 0.44335938 12.66210938 C0.40146484 11.85966797 0.35957031 11.05722656 0.31640625 10.23046875 C0.26141968 9.12288208 0.26141968 9.12288208 0.20532227 7.99291992 C0.05157859 5.792505 0.05157859 5.792505 -1 3 C-0.67 2.01 -0.34 1.02 0 0 Z " fill="#DA923B" transform="translate(205,35)"/>
<path d="M0 0 C0.28875 0.61875 0.5775 1.2375 0.875 1.875 C1.93720042 4.13325765 1.93720042 4.13325765 4 6 C6.57061311 6.64767793 6.57061311 6.64767793 9 7 C9 7.33 9 7.66 9 8 C5.04 8 1.08 8 -3 8 C-3.33 6.35 -3.66 4.7 -4 3 C-3.01 3.495 -3.01 3.495 -2 4 C-2 4.99 -2 5.98 -2 7 C-1.01 7 -0.02 7 1 7 C0.34 6.01 -0.32 5.02 -1 4 C-0.625 1.8125 -0.625 1.8125 0 0 Z " fill="#CCD6CD" transform="translate(115,71)"/>
<path d="M0 0 C0.33 0 0.66 0 1 0 C1 4.62 1 9.24 1 14 C-0.32 14.33 -1.64 14.66 -3 15 C-3 12.36 -3 9.72 -3 7 C-2.01 7.495 -2.01 7.495 -1 8 C-0.67 5.36 -0.34 2.72 0 0 Z " fill="#A0CFA6" transform="translate(193,64)"/>
<path d="M0 0 C0.99 0 1.98 0 3 0 C3 0.66 3 1.32 3 2 C3.66 2 4.32 2 5 2 C5.33 1.34 5.66 0.68 6 0 C5.67 1.65 5.34 3.3 5 5 C3.35 5.33 1.7 5.66 0 6 C-0.38218767 4.34385343 -0.71395102 2.67542976 -1 1 C-0.67 0.67 -0.34 0.34 0 0 Z " fill="#D8E1D9" transform="translate(162,70)"/>
<path d="M0 0 C0.66 0 1.32 0 2 0 C2 0.66 2 1.32 2 2 C5.3 2.99 8.6 3.98 12 5 C12 5.33 12 5.66 12 6 C7.07008655 6.28999491 3.90748231 6.19703098 0 3 C0 2.01 0 1.02 0 0 Z " fill="#6EB737" transform="translate(53,66)"/>
<path d="M0 0 C-0.55704728 3.23087421 -1.33187535 5.02361137 -4 7 C-5.32 7 -6.64 7 -8 7 C-6.56389554 2.69168661 -4.72692072 0 0 0 Z " fill="#75BA3B" transform="translate(93,60)"/>
<path d="M0 0 C3.3 0 6.6 0 10 0 C9.67 0.99 9.34 1.98 9 3 C6.36 3 3.72 3 1 3 C0.67 2.01 0.34 1.02 0 0 Z " fill="#6EBA66" transform="translate(53,83)"/>
<path d="M0 0 C0.2475 0.639375 0.495 1.27875 0.75 1.9375 C1.81562433 4.18741541 1.81562433 4.18741541 4.125 4.75 C4.74375 4.8325 5.3625 4.915 6 5 C5.01 5.33 4.02 5.66 3 6 C2.34 5.67 1.68 5.34 1 5 C1.33 5.99 1.66 6.98 2 8 C1.01 8 0.02 8 -1 8 C-1 7.01 -1 6.02 -1 5 C-2.32 5.33 -3.64 5.66 -5 6 C-5 5.34 -5 4.68 -5 4 C-3.35 4 -1.7 4 0 4 C0 2.68 0 1.36 0 0 Z " fill="#CDDBCF" transform="translate(125,70)"/>
<path d="M0 0 C1 2 1 2 0.51171875 3.98828125 C0.23972656 4.75527344 -0.03226563 5.52226563 -0.3125 6.3125 C-0.73402344 7.51132812 -0.73402344 7.51132812 -1.1640625 8.734375 C-2.06484488 11.17574781 -2.99357584 13.60006547 -4 16 C-5.16161779 13.13421241 -4.9946154 11.98369837 -4.00390625 8.984375 C-3.52824219 7.91703125 -3.05257812 6.8496875 -2.5625 5.75 C-2.08941406 4.67234375 -1.61632812 3.5946875 -1.12890625 2.484375 C-0.75636719 1.66453125 -0.38382813 0.8446875 0 0 Z " fill="#AF9D87" transform="translate(203,43)"/>
<path d="M0 0 C0.66 0.33 1.32 0.66 2 1 C1.67 2.65 1.34 4.3 1 6 C-0.65 6 -2.3 6 -4 6 C-4.33 4.68 -4.66 3.36 -5 2 C-2.525 2.495 -2.525 2.495 0 3 C0 2.01 0 1.02 0 0 Z " fill="#71AD79" transform="translate(131,73)"/>
<path d="M0 0 C1.32 0 2.64 0 4 0 C4 0.66 4 1.32 4 2 C3.34 2 2.68 2 2 2 C2 4.64 2 7.28 2 10 C1.34 10 0.68 10 0 10 C0 6.7 0 3.4 0 0 Z " fill="#66B471" transform="translate(154,68)"/>
<path d="M0 0 C0.66 0 1.32 0 2 0 C2 3.63 2 7.26 2 11 C1.34 9.68 0.68 8.36 0 7 C-0.66 7.99 -1.32 8.98 -2 10 C-1.54177532 6.53058454 -1.10868317 3.32604951 0 0 Z " fill="#ECECEC" transform="translate(203,47)"/>
<path d="M0 0 C0.66 0 1.32 0 2 0 C2 1.98 2 3.96 2 6 C3.32 6.33 4.64 6.66 6 7 C5.38125 7.103125 4.7625 7.20625 4.125 7.3125 C1.63473516 7.87525373 1.63473516 7.87525373 0 11 C0 7.37 0 3.74 0 0 Z " fill="#54B161" transform="translate(107,66)"/>
<path d="M0 0 C0.99 0.33 1.98 0.66 3 1 C2.34 1 1.68 1 1 1 C1 1.99 1 2.98 1 4 C1.66 4 2.32 4 3 4 C3 5.32 3 6.64 3 8 C1.35 8 -0.3 8 -2 8 C-1.34 5.36 -0.68 2.72 0 0 Z " fill="#8CC694" transform="translate(185,65)"/>
<path d="M0 0 C1.98 0 3.96 0 6 0 C5.01 0.495 5.01 0.495 4 1 C4 2.32 4 3.64 4 5 C2.68 5 1.36 5 0 5 C0 3.35 0 1.7 0 0 Z " fill="#BCD6BF" transform="translate(109,66)"/>
<path d="M0 0 C-1.12073862 0.83905565 -2.24674547 1.67107831 -3.375 2.5 C-4.00148438 2.9640625 -4.62796875 3.428125 -5.2734375 3.90625 C-7 5 -7 5 -9 5 C-9 4.01 -9 3.02 -9 2 C-5.62638617 -0.62392187 -4.03085709 -1.27471549 0 0 Z " fill="#F9CE6F" transform="translate(43,20)"/>
<path d="M0 0 C0.99 0 1.98 0 3 0 C3.33 2.97 3.66 5.94 4 9 C3.01 8.01 2.02 7.02 1 6 C0.67 6 0.34 6 0 6 C0 4.02 0 2.04 0 0 Z " fill="#E8E5E1" transform="translate(129,26)"/>
<path d="M0 0 C0.99 0 1.98 0 3 0 C3 1.32 3 2.64 3 4 C3.66 4.33 4.32 4.66 5 5 C2.69 5 0.38 5 -2 5 C-1.34 4.67 -0.68 4.34 0 4 C0 2.68 0 1.36 0 0 Z " fill="#84B18A" transform="translate(147,73)"/>
<path d="M0 0 C1.65 0 3.3 0 5 0 C5.33 0.66 5.66 1.32 6 2 C4.68 2.33 3.36 2.66 2 3 C1.67 4.98 1.34 6.96 1 9 C0.67 9 0.34 9 0 9 C0 6.03 0 3.06 0 0 Z " fill="#67A970" transform="translate(208,68)"/>
<path d="M0 0 C1.75 0.9375 1.75 0.9375 2.75 2.9375 C1.38875 2.875625 1.38875 2.875625 0 2.8125 C-3.1282046 2.93281556 -4.63614006 3.3289708 -7.25 4.9375 C-2.8452381 -0.07903439 -2.8452381 -0.07903439 0 0 Z " fill="#85C245" transform="translate(50.25,63.0625)"/>
<path d="M0 0 C2 3 2 3 1.625 5.6875 C1.41875 6.450625 1.2125 7.21375 1 8 C0.01 8.33 -0.98 8.66 -2 9 C-2 7.68 -2 6.36 -2 5 C-1.34 5 -0.68 5 0 5 C0 3.35 0 1.7 0 0 Z " fill="#F3BE86" transform="translate(45,55)"/>
<path d="M0 0 C2.97 0.495 2.97 0.495 6 1 C6 1.99 6 2.98 6 4 C5.34 4 4.68 4 4 4 C4 3.34 4 2.68 4 2 C2.35 2.66 0.7 3.32 -1 4 C-0.67 2.68 -0.34 1.36 0 0 Z " fill="#67A96F" transform="translate(161,68)"/>
<path d="M0 0 C0.33 0 0.66 0 1 0 C1 1.98 1 3.96 1 6 C2.32 5.34 3.64 4.68 5 4 C4.1875 5.9375 4.1875 5.9375 3 8 C2.01 8.33 1.02 8.66 0 9 C0 6.03 0 3.06 0 0 Z " fill="#EFA133" transform="translate(24,40)"/>
<path d="M0 0 C0.99 0.33 1.98 0.66 3 1 C0.1875 3.0625 0.1875 3.0625 -3 5 C-3.99 4.67 -4.98 4.34 -6 4 C-3.1875 1.9375 -3.1875 1.9375 0 0 Z " fill="#EDF086" transform="translate(60,26)"/>
<path d="M0 0 C-0.99 0.33 -1.98 0.66 -3 1 C-3.33 1.99 -3.66 2.98 -4 4 C-4.66 4 -5.32 4 -6 4 C-6 2.68 -6 1.36 -6 0 C-3.50907189 -1.24546405 -2.58919267 -0.7767578 0 0 Z " fill="#5EB145" transform="translate(81,76)"/>
<path d="M0 0 C0.33 0.99 0.66 1.98 1 3 C-0.9375 6.1875 -0.9375 6.1875 -3 9 C-3.66 8.34 -4.32 7.68 -5 7 C-3.35 4.69 -1.7 2.38 0 0 Z " fill="#C1DE8D" transform="translate(88,49)"/>
<path d="M0 0 C2.50037734 2.17424117 3.43628586 3.73045798 4 7 C2.68 6.67 1.36 6.34 0 6 C0 4.02 0 2.04 0 0 Z " fill="#B88B55" transform="translate(183,36)"/>
</svg>
