<svg xmlns="http://www.w3.org/2000/svg" xmlns:xlink="http://www.w3.org/1999/xlink" xmlns:serif="http://www.serif.com/"
    viewBox="0 0 24 30" version="1.1" xml:space="preserve" style="" x="0px" y="0px" fill-rule="evenodd"
    clip-rule="evenodd" stroke-linejoin="round" stroke-miterlimit="2">
    <g>
        <g>
            <path
                d="M22.5,17.54l0,-9.5c-0,-1.38 -1.119,-2.5 -2.5,-2.5l-8.5,0c-0.552,0 -1,-0.447 -1,-1c-0,0.276 -0.224,0.5 -0.5,0.5c0.276,0 0.5,-0.224 0.5,-0.5c-0,-1.104 -0.895,-2 -2,-2l-1.5,0c-0.276,0 -0.5,0.224 -0.5,0.5c-0,0.276 0.224,0.5 0.5,0.5l1.5,0c0.552,0 1,0.448 1,1c0,0.276 0.224,0.5 0.5,0.5c-0.276,0 -0.5,-0.224 -0.5,-0.5c-0,1.105 0.895,2 2,2c-0,0 8.5,0 8.5,0c0.828,0 1.5,0.672 1.5,1.5c0,0 0,9.5 0,9.5c-0,0.276 0.224,0.5 0.5,0.5c0.276,0 0.5,-0.224 0.5,-0.5Z" />
            <path
                d="M3.528,2.541l-0.03,-0.001c-1.103,0 -1.998,0.895 -1.998,1.998l0,13.502c-0,1.381 1.119,2.5 2.5,2.5l16.5,0c0.276,0 0.5,-0.224 0.5,-0.5c-0,-0.276 -0.224,-0.5 -0.5,-0.5l-16.5,0c-0.828,0 -1.5,-0.671 -1.5,-1.5c0,0 0,-13.502 0,-13.502c0,-0.551 0.447,-0.998 0.998,-0.998c0,0 0.002,0 0.002,0l0.027,-0.043c0.115,-0.188 0.535,-0.93 0.001,-0.956Z" />
            <path
                d="M5,17.54l4,0c0.276,0 0.5,-0.224 0.5,-0.5c0,-0.276 -0.224,-0.5 -0.5,-0.5l-4,0c-0.276,0 -0.5,0.224 -0.5,0.5c0,0.276 0.224,0.5 0.5,0.5Z" />
            <path
                d="M2.646,2.894l18,18c0.196,0.195 0.512,0.195 0.708,-0c0.195,-0.195 0.195,-0.512 -0,-0.707l-18,-18c-0.196,-0.195 -0.512,-0.195 -0.708,-0c-0.195,0.195 -0.195,0.512 0,0.707Z" />
        </g>
    </g>
</svg>