<svg width="54" height="54" viewBox="0 0 54 54" fill="none" xmlns="http://www.w3.org/2000/svg">
<circle cx="27" cy="27" r="27" fill="white"/>
<circle cx="27" cy="27" r="27" fill="white"/>
<circle cx="27" cy="27" r="27" fill="white"/>
<path d="M16 16.4875C16 15.5626 16.3556 14.6755 16.9885 14.0215C17.6215 13.3674 18.4799 13 19.375 13H31.375C32.2701 13 33.1285 13.3674 33.7615 14.0215C34.3944 14.6755 34.75 15.5626 34.75 16.4875V24.625H36.625C37.0682 24.625 37.5071 24.7152 37.9166 24.8905C38.326 25.0657 38.6981 25.3226 39.0115 25.6465C39.3249 25.9703 39.5735 26.3548 39.7431 26.7779C39.9127 27.201 40 27.6545 40 28.1125V42.8375C40 43.1458 39.8815 43.4415 39.6705 43.6595C39.4595 43.8775 39.1734 44 38.875 44H34.75V38.1875C34.75 37.118 33.91 36.25 32.875 36.25H23.125C22.09 36.25 21.25 37.118 21.25 38.1875V44H17.125C16.8266 44 16.5405 43.8775 16.3295 43.6595C16.1185 43.4415 16 43.1458 16 42.8375V16.4875ZM32.5 38.575V44H29.125V38.575H32.5ZM26.875 38.575V44H23.5V38.575H26.875ZM21.25 19.975C21.25 20.3861 21.408 20.7803 21.6893 21.071C21.9706 21.3617 22.3522 21.525 22.75 21.525C23.1478 21.525 23.5294 21.3617 23.8107 21.071C24.092 20.7803 24.25 20.3861 24.25 19.975C24.25 19.5639 24.092 19.1697 23.8107 18.879C23.5294 18.5883 23.1478 18.425 22.75 18.425C22.3522 18.425 21.9706 18.5883 21.6893 18.879C21.408 19.1697 21.25 19.5639 21.25 19.975ZM22.75 29.275C22.3522 29.275 21.9706 29.4383 21.6893 29.729C21.408 30.0197 21.25 30.4139 21.25 30.825C21.25 31.2361 21.408 31.6303 21.6893 31.921C21.9706 32.2117 22.3522 32.375 22.75 32.375C23.1478 32.375 23.5294 32.2117 23.8107 31.921C24.092 31.6303 24.25 31.2361 24.25 30.825C24.25 30.4139 24.092 30.0197 23.8107 29.729C23.5294 29.4383 23.1478 29.275 22.75 29.275ZM22.75 23.85C22.3522 23.85 21.9706 24.0133 21.6893 24.304C21.408 24.5947 21.25 24.9889 21.25 25.4C21.25 25.8111 21.408 26.2053 21.6893 26.496C21.9706 26.7867 22.3522 26.95 22.75 26.95C23.1478 26.95 23.5294 26.7867 23.8107 26.496C24.092 26.2053 24.25 25.8111 24.25 25.4C24.25 24.9889 24.092 24.5947 23.8107 24.304C23.5294 24.0133 23.1478 23.85 22.75 23.85ZM28 18.425C27.6022 18.425 27.2206 18.5883 26.9393 18.879C26.658 19.1697 26.5 19.5639 26.5 19.975C26.5 20.3861 26.658 20.7803 26.9393 21.071C27.2206 21.3617 27.6022 21.525 28 21.525C28.3978 21.525 28.7794 21.3617 29.0607 21.071C29.342 20.7803 29.5 20.3861 29.5 19.975C29.5 19.5639 29.342 19.1697 29.0607 18.879C28.7794 18.5883 28.3978 18.425 28 18.425ZM28 29.275C27.6022 29.275 27.2206 29.4383 26.9393 29.729C26.658 30.0197 26.5 30.4139 26.5 30.825C26.5 31.2361 26.658 31.6303 26.9393 31.921C27.2206 32.2117 27.6022 32.375 28 32.375C28.3978 32.375 28.7794 32.2117 29.0607 31.921C29.342 31.6303 29.5 31.2361 29.5 30.825C29.5 30.4139 29.342 30.0197 29.0607 29.729C28.7794 29.4383 28.3978 29.275 28 29.275ZM33.25 29.275C32.8522 29.275 32.4706 29.4383 32.1893 29.729C31.908 30.0197 31.75 30.4139 31.75 30.825C31.75 31.2361 31.908 31.6303 32.1893 31.921C32.4706 32.2117 32.8522 32.375 33.25 32.375C33.6478 32.375 34.0294 32.2117 34.3107 31.921C34.592 31.6303 34.75 31.2361 34.75 30.825C34.75 30.4139 34.592 30.0197 34.3107 29.729C34.0294 29.4383 33.6478 29.275 33.25 29.275ZM28 23.85C27.6022 23.85 27.2206 24.0133 26.9393 24.304C26.658 24.5947 26.5 24.9889 26.5 25.4C26.5 25.8111 26.658 26.2053 26.9393 26.496C27.2206 26.7867 27.6022 26.95 28 26.95C28.3978 26.95 28.7794 26.7867 29.0607 26.496C29.342 26.2053 29.5 25.8111 29.5 25.4C29.5 24.9889 29.342 24.5947 29.0607 24.304C28.7794 24.0133 28.3978 23.85 28 23.85Z" fill="#9A55FF"/>
</svg>
