<svg width="31" height="29" viewBox="0 0 31 29" fill="none" xmlns="http://www.w3.org/2000/svg">
<rect width="31" height="29" rx="5" fill="#0D6EFD"/>
<path d="M19.875 6.625H9.375C8.91087 6.625 8.46575 6.80937 8.13756 7.13756C7.80937 7.46575 7.625 7.91087 7.625 8.375V20.625C7.625 21.0891 7.80937 21.5342 8.13756 21.8624C8.46575 22.1906 8.91087 22.375 9.375 22.375H21.625C22.5875 22.375 23.375 21.5875 23.375 20.625V10.125L19.875 6.625ZM15.5 20.625C14.0475 20.625 12.875 19.4525 12.875 18C12.875 16.5475 14.0475 15.375 15.5 15.375C16.9525 15.375 18.125 16.5475 18.125 18C18.125 19.4525 16.9525 20.625 15.5 20.625ZM18.125 11.875H9.375V8.375H18.125V11.875Z" fill="white"/>
</svg>
