<svg width="23" height="23" viewBox="0 0 23 23" fill="none" xmlns="http://www.w3.org/2000/svg">
    <circle cx="11.5" cy="11.5" r="11" fill="#FED713" stroke="white" />
    <path fill-rule="evenodd" clip-rule="evenodd"
        d="M8.22906 12.5402C8.08239 12.3994 8 12.2084 8 12.0092C8 11.8101 8.08239 11.6191 8.22906 11.4782L12.6549 7.2293C12.7271 7.15756 12.8134 7.10034 12.9088 7.06098C13.0043 7.02161 13.107 7.00089 13.2108 7.00003C13.3147 6.99916 13.4177 7.01817 13.5139 7.05593C13.61 7.0937 13.6974 7.14947 13.7709 7.21999C13.8443 7.29051 13.9024 7.37437 13.9417 7.46668C13.9811 7.55898 14.0009 7.65789 14 7.75762C13.9991 7.85734 13.9775 7.9559 13.9365 8.04754C13.8955 8.13917 13.8359 8.22205 13.7612 8.29134L9.88846 12.0092L13.7612 15.7271C13.9037 15.8688 13.9825 16.0585 13.9807 16.2554C13.979 16.4524 13.8967 16.6408 13.7516 16.78C13.6066 16.9193 13.4103 16.9983 13.2052 17C13.0001 17.0017 12.8024 16.926 12.6549 16.7892L8.22906 12.5402Z"
        fill="black" />
</svg>