<svg width="29" height="34" viewBox="0 0 29 34" fill="none" xmlns="http://www.w3.org/2000/svg">
<ellipse cx="14" cy="17.4242" rx="14" ry="14.4242" fill="#9A55FF"/>
<g clip-path="url(#clip0_930_628)">
<path d="M14.5 17C15.4851 17 16.4298 16.6313 17.1264 15.9749C17.823 15.3185 18.2143 14.4283 18.2143 13.5C18.2143 12.5717 17.823 11.6815 17.1264 11.0251C16.4298 10.3687 15.4851 10 14.5 10C13.5149 10 12.5702 10.3687 11.8736 11.0251C11.177 11.6815 10.7857 12.5717 10.7857 13.5C10.7857 14.4283 11.177 15.3185 11.8736 15.9749C12.5702 16.6313 13.5149 17 14.5 17ZM13.1739 18.3125C10.3156 18.3125 8 20.4945 8 23.1879C8 23.6363 8.38594 24 8.86183 24H20.1382C20.6141 24 21 23.6363 21 23.1879C21 20.4945 18.6844 18.3125 15.8261 18.3125H13.1739Z" fill="white"/>
</g>
<defs>
<clipPath id="clip0_930_628">
<rect width="13" height="14" fill="white" transform="translate(8 10)"/>
</clipPath>
</defs>
</svg>
